M48
;DRILL file {KiCad 4.0.6} date 11/29/17 10:44:10
;FORMAT={-:-/ absolute / metric / decimal}
FMAT,2
METRIC,TZ
T1C0.300
T2C0.500
T3C1.040
T4C1.100
T5C1.300
T6C1.400
T7C3.180
T8C4.000
%
G90
G05
M71
T1
X65.024Y-96.52
X70.612Y-76.2
X70.612Y-81.28
X70.612Y-105.156
X72.644Y-84.328
X75.184Y-103.124
X75.184Y-104.648
X75.692Y-76.2
X76.708Y-82.804
X77.724Y-106.172
X78.74Y-72.136
X78.74Y-74.168
X78.74Y-76.2
X78.74Y-89.916
X80.264Y-103.124
X80.264Y-105.664
X81.28Y-72.136
X81.28Y-74.168
X81.28Y-76.2
X82.296Y-103.124
X82.296Y-105.664
X82.804Y-132.588
X82.804Y-134.62
X83.82Y-124.46
X83.82Y-125.984
X85.852Y-132.588
X86.36Y-124.46
X88.9Y-124.46
X88.9Y-132.588
X89.281Y-70.866
X90.678Y-75.692
X91.948Y-65.024
X91.948Y-68.58
X91.948Y-103.124
X91.948Y-105.664
X92.964Y-94.488
X94.488Y-103.124
X94.488Y-105.664
X95.504Y-77.089
X95.504Y-79.248
X97.028Y-103.124
X97.028Y-105.664
X99.06Y-119.888
X99.06Y-124.46
X99.06Y-127.508
X99.06Y-131.318
X99.568Y-103.124
X99.568Y-105.664
X99.695Y-65.659
T3
X59.431Y-83.834
X59.431Y-86.592
X59.431Y-89.35
X59.431Y-92.108
X59.431Y-94.866
X59.431Y-97.624
X59.431Y-100.382
X59.431Y-103.14
X59.431Y-105.898
X59.431Y-108.656
X59.431Y-111.414
X59.431Y-114.172
X61.971Y-82.455
X61.971Y-85.213
X61.971Y-87.971
X61.971Y-90.729
X61.971Y-93.487
X61.971Y-96.245
X61.971Y-99.003
X61.971Y-101.761
X61.971Y-104.519
X61.971Y-107.277
X61.971Y-110.035
X61.971Y-112.793
X61.971Y-115.551
T4
X69.088Y-99.06
X69.088Y-103.124
X69.088Y-107.188
X69.088Y-111.252
X73.152Y-120.396
X73.152Y-127.
X75.184Y-135.128
X80.264Y-135.128
X81.28Y-90.932
X81.28Y-94.488
X84.836Y-119.888
X84.836Y-128.524
X85.344Y-86.36
X91.948Y-73.152
X98.044Y-86.36
X98.679Y-59.563
X101.854Y-59.563
T5
X110.744Y-101.092
X110.744Y-103.632
X110.744Y-106.172
X110.744Y-108.712
X110.744Y-111.252
X110.744Y-113.792
T6
X69.088Y-60.226
X69.088Y-63.726
X84.328Y-60.226
X84.328Y-63.726
X110.236Y-65.56
X110.236Y-69.06
X110.236Y-76.228
X110.236Y-79.728
X110.236Y-87.178
X110.236Y-90.678
X110.236Y-94.178
X111.252Y-120.48
X111.252Y-123.98
X111.252Y-127.48
X111.252Y-130.98
T7
X60.571Y-75.495
X60.571Y-122.511
T8
X57.144Y-55.003
X57.144Y-143.003
X109.144Y-55.003
X109.144Y-143.003
T2
X88.497Y-136.7G85X91.597Y-136.7
G05
X88.497Y-142.7G85X91.597Y-142.7
G05
X94.742Y-140.975G85X94.742Y-138.425
G05
T0
M30
