G04 #@! TF.FileFunction,Copper,L2,Bot,Signal*
%FSLAX46Y46*%
G04 Gerber Fmt 4.6, Leading zero omitted, Abs format (unit mm)*
G04 Created by KiCad (PCBNEW 4.0.6) date 11/29/17 10:44:29*
%MOMM*%
%LPD*%
G01*
G04 APERTURE LIST*
%ADD10C,0.100000*%
%ADD11C,4.200000*%
%ADD12C,2.100000*%
%ADD13R,4.400000X4.400000*%
%ADD14R,3.800000X3.800000*%
%ADD15C,2.800000*%
%ADD16C,2.200000*%
%ADD17C,3.900000*%
%ADD18C,2.040000*%
%ADD19R,2.040000X2.020000*%
%ADD20C,0.600000*%
%ADD21C,0.150000*%
%ADD22C,0.500000*%
%ADD23C,1.000000*%
%ADD24C,0.300000*%
%ADD25C,0.800000*%
%ADD26C,0.200000*%
%ADD27C,0.254000*%
G04 APERTURE END LIST*
D10*
D11*
X109144000Y-55003000D03*
D12*
X69088000Y-107188000D03*
X69088000Y-111252000D03*
X69088000Y-103124000D03*
X80264000Y-135128000D03*
X75184000Y-135128000D03*
X69088000Y-99060000D03*
X98679000Y-59563000D03*
X101854000Y-59563000D03*
X91948000Y-73152000D03*
X98044000Y-86360000D03*
X85344000Y-86360000D03*
X81280000Y-94488000D03*
X81280000Y-90932000D03*
X84836000Y-128524000D03*
X84836000Y-119888000D03*
X73152000Y-127000000D03*
X73152000Y-120396000D03*
D13*
X90047000Y-136700000D03*
X90047000Y-142700000D03*
D14*
X94742000Y-139700000D03*
D11*
X57144000Y-143003000D03*
X57144000Y-55003000D03*
X109144000Y-143003000D03*
D15*
X110236000Y-65560000D03*
X110236000Y-69060000D03*
X110236000Y-76228000D03*
X110236000Y-79728000D03*
X110236000Y-87178000D03*
X110236000Y-90678000D03*
X110236000Y-94178000D03*
D16*
X110744000Y-108712000D03*
X110744000Y-106172000D03*
X110744000Y-111252000D03*
X110744000Y-103632000D03*
X110744000Y-113792000D03*
X110744000Y-101092000D03*
D15*
X111252000Y-127480000D03*
X111252000Y-123980000D03*
X111252000Y-130980000D03*
X111252000Y-120480000D03*
X69088000Y-60226000D03*
X69088000Y-63726000D03*
X84328000Y-60226000D03*
X84328000Y-63726000D03*
D17*
X60570920Y-75495000D03*
X60570920Y-122511000D03*
D18*
X61970920Y-115551000D03*
X61970920Y-112793000D03*
X61970920Y-110035000D03*
X61970920Y-107277000D03*
X61970920Y-104519000D03*
X61970920Y-101761000D03*
X61970920Y-99003000D03*
X61970920Y-96245000D03*
X61970920Y-93487000D03*
X61970920Y-90729000D03*
X61970920Y-87971000D03*
X61970920Y-85213000D03*
D19*
X61970920Y-82455000D03*
D18*
X59430920Y-114172000D03*
X59430920Y-111414000D03*
X59430920Y-108656000D03*
X59430920Y-105898000D03*
X59430920Y-103140000D03*
X59430920Y-100382000D03*
X59430920Y-97624000D03*
X59430920Y-94866000D03*
X59430920Y-92108000D03*
X59430920Y-89350000D03*
X59430920Y-86592000D03*
X59430920Y-83834000D03*
D20*
X78740000Y-89916000D03*
X99060000Y-127508000D03*
X99060000Y-124460000D03*
X99060000Y-131318000D03*
X99060000Y-119888000D03*
X82804000Y-134620000D03*
X82804000Y-132588000D03*
X85852000Y-132588000D03*
X88900000Y-132588000D03*
X83820000Y-125984000D03*
X83820000Y-124460000D03*
X86360000Y-124460000D03*
X88900000Y-124460000D03*
X70612000Y-76200000D03*
X75692000Y-76200000D03*
X78740000Y-76200000D03*
X70612000Y-81280000D03*
X89281000Y-70866000D03*
X90678000Y-75692000D03*
X99695000Y-65659000D03*
X81280000Y-72136000D03*
X78740000Y-72136000D03*
X78740000Y-74168000D03*
X81280000Y-74168000D03*
X81280000Y-76200000D03*
X75184000Y-103124000D03*
X75184000Y-104648000D03*
X70612000Y-105156000D03*
X77724000Y-106172000D03*
X80264000Y-103124000D03*
X82296000Y-103124000D03*
X82296000Y-105664000D03*
X80264000Y-105664000D03*
X99568000Y-103124000D03*
X99568000Y-105664000D03*
X97028000Y-105664000D03*
X97028000Y-103124000D03*
X94488000Y-103124000D03*
X94488000Y-105664000D03*
X91948000Y-105664000D03*
X91948000Y-103124000D03*
X72644000Y-84328000D03*
X76708000Y-82804000D03*
X91948000Y-65024000D03*
X91948000Y-68580000D03*
X95504000Y-77089000D03*
X95504000Y-79248000D03*
X65024000Y-96520000D03*
X92964000Y-94488000D03*
D21*
X79756000Y-86868000D02*
X79248000Y-87376000D01*
X78740000Y-87376000D02*
X78740000Y-89916000D01*
X79248000Y-87376000D02*
X78740000Y-87376000D01*
D22*
X99060000Y-131318000D02*
X99060000Y-127508000D01*
X99060000Y-127508000D02*
X99060000Y-124460000D01*
X99060000Y-119888000D02*
X99060000Y-124460000D01*
X99060000Y-124460000D02*
X88900000Y-124460000D01*
X82804000Y-132588000D02*
X82804000Y-134620000D01*
X88900000Y-132588000D02*
X85852000Y-132588000D01*
X83820000Y-124460000D02*
X83820000Y-125984000D01*
X88900000Y-124460000D02*
X86360000Y-124460000D01*
D23*
X107047000Y-131064000D02*
X107047000Y-130189000D01*
X109756000Y-127480000D02*
X111252000Y-127480000D01*
X107047000Y-130189000D02*
X109756000Y-127480000D01*
X107047000Y-124685000D02*
X107047000Y-121553000D01*
X108120000Y-120480000D02*
X111252000Y-120480000D01*
X107047000Y-121553000D02*
X108120000Y-120480000D01*
D22*
X80264000Y-135128000D02*
X80772000Y-135128000D01*
X80772000Y-135128000D02*
X82344000Y-136700000D01*
X90047000Y-136700000D02*
X82344000Y-136700000D01*
X89999000Y-136652000D02*
X90047000Y-136700000D01*
D23*
X90047000Y-136700000D02*
X102540000Y-136700000D01*
X102540000Y-136700000D02*
X107047000Y-132193000D01*
X107047000Y-132193000D02*
X107047000Y-131064000D01*
X107047000Y-131064000D02*
X107047000Y-124685000D01*
D22*
X61970920Y-107277000D02*
X64723000Y-107277000D01*
X64723000Y-107277000D02*
X69000000Y-103000000D01*
X78740000Y-76200000D02*
X81280000Y-76200000D01*
X70612000Y-76200000D02*
X75692000Y-76200000D01*
X89281000Y-70866000D02*
X94488000Y-70866000D01*
X90678000Y-75438000D02*
X89281000Y-74041000D01*
X89281000Y-74041000D02*
X89281000Y-70866000D01*
X81280000Y-76200000D02*
X90170000Y-76200000D01*
X90170000Y-76200000D02*
X90678000Y-75692000D01*
X90678000Y-75692000D02*
X90678000Y-75438000D01*
X94488000Y-70866000D02*
X99695000Y-65659000D01*
X81280000Y-72136000D02*
X78740000Y-72136000D01*
X78740000Y-74168000D02*
X81280000Y-74168000D01*
D24*
X75184000Y-104648000D02*
X75184000Y-103124000D01*
D22*
X82296000Y-103124000D02*
X80264000Y-103124000D01*
X80264000Y-105664000D02*
X82296000Y-105664000D01*
X99568000Y-105664000D02*
X99568000Y-103124000D01*
X97028000Y-103124000D02*
X97028000Y-105664000D01*
X94488000Y-105664000D02*
X94488000Y-103124000D01*
X91948000Y-103124000D02*
X91948000Y-105664000D01*
X85344000Y-86360000D02*
X98044000Y-86360000D01*
X61970920Y-104519000D02*
X63629000Y-104519000D01*
X63629000Y-104519000D02*
X69088000Y-99060000D01*
X74168000Y-82804000D02*
X72644000Y-84328000D01*
X76708000Y-82804000D02*
X74168000Y-82804000D01*
X91948000Y-68580000D02*
X91948000Y-65024000D01*
X61970920Y-112793000D02*
X67207000Y-112793000D01*
X67207000Y-112793000D02*
X69000000Y-111000000D01*
X61970920Y-110035000D02*
X65965000Y-110035000D01*
X65965000Y-110035000D02*
X69000000Y-107000000D01*
X93599000Y-78994000D02*
X92964000Y-78994000D01*
X95504000Y-77089000D02*
X93599000Y-78994000D01*
X75184000Y-78994000D02*
X65024000Y-78994000D01*
X92964000Y-78994000D02*
X75184000Y-78994000D01*
X56896000Y-85598000D02*
X57890000Y-86592000D01*
X56896000Y-81534000D02*
X56896000Y-85598000D01*
X58420000Y-80010000D02*
X56896000Y-81534000D01*
X64008000Y-80010000D02*
X58420000Y-80010000D01*
X57890000Y-86592000D02*
X59430920Y-86592000D01*
X65024000Y-78994000D02*
X64008000Y-80010000D01*
X94488000Y-80264000D02*
X93980000Y-80264000D01*
X95504000Y-79248000D02*
X94488000Y-80264000D01*
X61970920Y-85213000D02*
X69473000Y-85213000D01*
X69473000Y-85213000D02*
X74422000Y-80264000D01*
X74422000Y-80264000D02*
X93980000Y-80264000D01*
X110744000Y-111252000D02*
X84074000Y-111252000D01*
X84074000Y-111252000D02*
X79775000Y-115551000D01*
X79775000Y-115551000D02*
X61970920Y-115551000D01*
X81280000Y-90932000D02*
X62173920Y-90932000D01*
X62173920Y-90932000D02*
X61970920Y-90729000D01*
D25*
X110236000Y-90678000D02*
X109982000Y-90678000D01*
X109982000Y-90678000D02*
X102616000Y-83312000D01*
X75605000Y-87971000D02*
X61970920Y-87971000D01*
X80264000Y-83312000D02*
X75605000Y-87971000D01*
X102616000Y-83312000D02*
X80264000Y-83312000D01*
D22*
X73660000Y-96774000D02*
X75946000Y-96774000D01*
X80264000Y-101092000D02*
X102616000Y-101092000D01*
X75946000Y-96774000D02*
X80264000Y-101092000D01*
X73660000Y-96774000D02*
X65278000Y-96774000D01*
X65278000Y-96774000D02*
X65024000Y-96520000D01*
X110744000Y-101092000D02*
X102616000Y-101092000D01*
X59430920Y-114172000D02*
X59430920Y-116834920D01*
X59430920Y-116834920D02*
X60706000Y-118110000D01*
X66294000Y-118110000D02*
X68580000Y-120396000D01*
X60706000Y-118110000D02*
X66294000Y-118110000D01*
X68580000Y-120396000D02*
X73152000Y-120396000D01*
X110744000Y-108712000D02*
X112268000Y-108712000D01*
X57242000Y-111414000D02*
X59430920Y-111414000D01*
X56896000Y-111760000D02*
X57242000Y-111414000D01*
X56896000Y-118872000D02*
X56896000Y-111760000D01*
X57150000Y-119126000D02*
X56896000Y-118872000D01*
X65786000Y-119126000D02*
X57150000Y-119126000D01*
X69596000Y-122936000D02*
X65786000Y-119126000D01*
X85344000Y-122936000D02*
X69596000Y-122936000D01*
X89916000Y-118364000D02*
X85344000Y-122936000D01*
X110744000Y-118364000D02*
X89916000Y-118364000D01*
X113284000Y-115824000D02*
X110744000Y-118364000D01*
X113284000Y-109728000D02*
X113284000Y-115824000D01*
X112268000Y-108712000D02*
X113284000Y-109728000D01*
D26*
X59522920Y-111506000D02*
X59430920Y-111414000D01*
D22*
X77724000Y-94488000D02*
X64516000Y-94488000D01*
X64516000Y-94488000D02*
X64138000Y-94866000D01*
D24*
X59430920Y-94866000D02*
X64138000Y-94866000D01*
D22*
X77724000Y-94488000D02*
X81280000Y-94488000D01*
X81280000Y-94488000D02*
X92964000Y-94488000D01*
X102108000Y-92710000D02*
X102362000Y-92710000D01*
X102362000Y-92710000D02*
X103632000Y-93980000D01*
X103632000Y-93980000D02*
X107188000Y-97536000D01*
X112776000Y-103632000D02*
X110744000Y-103632000D01*
X107188000Y-97536000D02*
X107696000Y-98044000D01*
X107696000Y-98044000D02*
X111252000Y-98044000D01*
X111252000Y-98044000D02*
X113284000Y-100076000D01*
X113284000Y-100076000D02*
X113284000Y-103124000D01*
X113284000Y-103124000D02*
X112776000Y-103632000D01*
D24*
X59430920Y-92108000D02*
X63848000Y-92108000D01*
D22*
X64450000Y-92710000D02*
X102108000Y-92710000D01*
X63848000Y-92108000D02*
X64450000Y-92710000D01*
D23*
X84328000Y-60226000D02*
X92174000Y-60226000D01*
X110236000Y-62484000D02*
X110236000Y-65560000D01*
X104775000Y-57023000D02*
X110236000Y-62484000D01*
X95377000Y-57023000D02*
X104775000Y-57023000D01*
X92174000Y-60226000D02*
X95377000Y-57023000D01*
X69088000Y-60226000D02*
X84328000Y-60226000D01*
X84419500Y-60134500D02*
X84328000Y-60226000D01*
D27*
G36*
X58149687Y-104796375D02*
X58263918Y-104910606D01*
X57994989Y-105011716D01*
X57765126Y-105628687D01*
X57788866Y-106286659D01*
X57994989Y-106784284D01*
X58263919Y-106885395D01*
X59251315Y-105898000D01*
X59237172Y-105883858D01*
X59309000Y-105812030D01*
X59309000Y-106199525D01*
X58443525Y-107065001D01*
X58511300Y-107245267D01*
X58494663Y-107252141D01*
X58028698Y-107717294D01*
X57776208Y-108325356D01*
X57775634Y-108983756D01*
X58027061Y-109592257D01*
X58469396Y-110035364D01*
X58028698Y-110475294D01*
X58006397Y-110529000D01*
X57242005Y-110529000D01*
X57242000Y-110528999D01*
X56959516Y-110585190D01*
X56903325Y-110596367D01*
X56616210Y-110788210D01*
X56616208Y-110788213D01*
X56270210Y-111134210D01*
X56078367Y-111421325D01*
X56078367Y-111421326D01*
X56010999Y-111760000D01*
X56011000Y-111760005D01*
X56011000Y-118871995D01*
X56010999Y-118872000D01*
X56035466Y-118995000D01*
X56078367Y-119210675D01*
X56155264Y-119325760D01*
X56270210Y-119497790D01*
X56524208Y-119751787D01*
X56524210Y-119751790D01*
X56784265Y-119925552D01*
X56811325Y-119943633D01*
X57150000Y-120011001D01*
X57150005Y-120011000D01*
X59852188Y-120011000D01*
X59108548Y-120318266D01*
X58380742Y-121044803D01*
X57986370Y-121994556D01*
X57985472Y-123022932D01*
X58378186Y-123973372D01*
X59104723Y-124701178D01*
X60054476Y-125095550D01*
X61082852Y-125096448D01*
X62033292Y-124703734D01*
X62761098Y-123977197D01*
X63155470Y-123027444D01*
X63156368Y-121999068D01*
X62763654Y-121048628D01*
X62037117Y-120320822D01*
X61290983Y-120011000D01*
X65419420Y-120011000D01*
X68970208Y-123561787D01*
X68970210Y-123561790D01*
X69257325Y-123753633D01*
X69313516Y-123764810D01*
X69596000Y-123821001D01*
X69596005Y-123821000D01*
X85343995Y-123821000D01*
X85344000Y-123821001D01*
X85626484Y-123764810D01*
X85682675Y-123753633D01*
X85969790Y-123561790D01*
X90282579Y-119249000D01*
X109604711Y-119249000D01*
X109527817Y-119325760D01*
X109519828Y-119345000D01*
X108120000Y-119345000D01*
X107685654Y-119431397D01*
X107465698Y-119578367D01*
X107317434Y-119677434D01*
X106244434Y-120750434D01*
X105998397Y-121118654D01*
X105912000Y-121553000D01*
X105912000Y-131722867D01*
X102069868Y-135565000D01*
X92894440Y-135565000D01*
X92894440Y-134500000D01*
X92850162Y-134264683D01*
X92711090Y-134048559D01*
X92498890Y-133903569D01*
X92247000Y-133852560D01*
X87847000Y-133852560D01*
X87611683Y-133896838D01*
X87395559Y-134035910D01*
X87250569Y-134248110D01*
X87199560Y-134500000D01*
X87199560Y-135815000D01*
X82710579Y-135815000D01*
X81949066Y-135053486D01*
X81949292Y-134794303D01*
X81693306Y-134174771D01*
X81219722Y-133700360D01*
X80600638Y-133443293D01*
X79930303Y-133442708D01*
X79310771Y-133698694D01*
X78836360Y-134172278D01*
X78579293Y-134791362D01*
X78578708Y-135461697D01*
X78834694Y-136081229D01*
X79308278Y-136555640D01*
X79927362Y-136812707D01*
X80597697Y-136813292D01*
X81027940Y-136635519D01*
X81718208Y-137325787D01*
X81718210Y-137325790D01*
X82005325Y-137517633D01*
X82061516Y-137528810D01*
X82344000Y-137585001D01*
X82344005Y-137585000D01*
X87199560Y-137585000D01*
X87199560Y-138900000D01*
X87243838Y-139135317D01*
X87382910Y-139351441D01*
X87595110Y-139496431D01*
X87847000Y-139547440D01*
X92247000Y-139547440D01*
X92325432Y-139532682D01*
X92365750Y-139573000D01*
X94615000Y-139573000D01*
X94615000Y-139553000D01*
X94869000Y-139553000D01*
X94869000Y-139573000D01*
X97118250Y-139573000D01*
X97277000Y-139414250D01*
X97277000Y-137835000D01*
X102540000Y-137835000D01*
X102974346Y-137748603D01*
X103342566Y-137502566D01*
X107849567Y-132995566D01*
X108095604Y-132627345D01*
X108182000Y-132193000D01*
X108182000Y-130659132D01*
X109867556Y-128973577D01*
X110097760Y-129204183D01*
X110159161Y-129229679D01*
X110100771Y-129253805D01*
X109527817Y-129825760D01*
X109217354Y-130573438D01*
X109216648Y-131383011D01*
X109525805Y-132131229D01*
X110097760Y-132704183D01*
X110845438Y-133014646D01*
X111655011Y-133015352D01*
X112403229Y-132706195D01*
X112976183Y-132134240D01*
X113286646Y-131386562D01*
X113287352Y-130576989D01*
X112978195Y-129828771D01*
X112406240Y-129255817D01*
X112344839Y-129230321D01*
X112403229Y-129206195D01*
X112976183Y-128634240D01*
X113286646Y-127886562D01*
X113287352Y-127076989D01*
X112978195Y-126328771D01*
X112406240Y-125755817D01*
X112344839Y-125730321D01*
X112403229Y-125706195D01*
X112976183Y-125134240D01*
X113286646Y-124386562D01*
X113287352Y-123576989D01*
X112978195Y-122828771D01*
X112406240Y-122255817D01*
X112344839Y-122230321D01*
X112403229Y-122206195D01*
X112976183Y-121634240D01*
X113286646Y-120886562D01*
X113287352Y-120076989D01*
X112978195Y-119328771D01*
X112406240Y-118755817D01*
X111839213Y-118520367D01*
X113909787Y-116449792D01*
X113909790Y-116449790D01*
X114101633Y-116162675D01*
X114169000Y-115824000D01*
X114169000Y-109728005D01*
X114169001Y-109728000D01*
X114101633Y-109389326D01*
X114101633Y-109389325D01*
X113909790Y-109102210D01*
X113909787Y-109102208D01*
X113646579Y-108839000D01*
X114459000Y-108839000D01*
X114459000Y-148318000D01*
X65332516Y-148318000D01*
X51829000Y-148209101D01*
X51829000Y-143544638D01*
X54408526Y-143544638D01*
X54824028Y-144550229D01*
X55592724Y-145320268D01*
X56597588Y-145737524D01*
X57685638Y-145738474D01*
X58691229Y-145322972D01*
X59461268Y-144554276D01*
X59878524Y-143549412D01*
X59879016Y-142985750D01*
X87212000Y-142985750D01*
X87212000Y-145026309D01*
X87308673Y-145259698D01*
X87487301Y-145438327D01*
X87720690Y-145535000D01*
X89761250Y-145535000D01*
X89920000Y-145376250D01*
X89920000Y-142827000D01*
X90174000Y-142827000D01*
X90174000Y-145376250D01*
X90332750Y-145535000D01*
X92373310Y-145535000D01*
X92606699Y-145438327D01*
X92785327Y-145259698D01*
X92882000Y-145026309D01*
X92882000Y-143544638D01*
X106408526Y-143544638D01*
X106824028Y-144550229D01*
X107592724Y-145320268D01*
X108597588Y-145737524D01*
X109685638Y-145738474D01*
X110691229Y-145322972D01*
X111461268Y-144554276D01*
X111878524Y-143549412D01*
X111879474Y-142461362D01*
X111463972Y-141455771D01*
X110695276Y-140685732D01*
X109690412Y-140268476D01*
X108602362Y-140267526D01*
X107596771Y-140683028D01*
X106826732Y-141451724D01*
X106409476Y-142456588D01*
X106408526Y-143544638D01*
X92882000Y-143544638D01*
X92882000Y-142985750D01*
X92723250Y-142827000D01*
X90174000Y-142827000D01*
X89920000Y-142827000D01*
X87370750Y-142827000D01*
X87212000Y-142985750D01*
X59879016Y-142985750D01*
X59879474Y-142461362D01*
X59463972Y-141455771D01*
X58695276Y-140685732D01*
X57943798Y-140373691D01*
X87212000Y-140373691D01*
X87212000Y-142414250D01*
X87370750Y-142573000D01*
X89920000Y-142573000D01*
X89920000Y-140023750D01*
X90174000Y-140023750D01*
X90174000Y-142573000D01*
X92723250Y-142573000D01*
X92882000Y-142414250D01*
X92882000Y-142235000D01*
X94456250Y-142235000D01*
X94615000Y-142076250D01*
X94615000Y-139827000D01*
X94869000Y-139827000D01*
X94869000Y-142076250D01*
X95027750Y-142235000D01*
X96768310Y-142235000D01*
X97001699Y-142138327D01*
X97180327Y-141959698D01*
X97277000Y-141726309D01*
X97277000Y-139985750D01*
X97118250Y-139827000D01*
X94869000Y-139827000D01*
X94615000Y-139827000D01*
X92365750Y-139827000D01*
X92327750Y-139865000D01*
X90332750Y-139865000D01*
X90174000Y-140023750D01*
X89920000Y-140023750D01*
X89761250Y-139865000D01*
X87720690Y-139865000D01*
X87487301Y-139961673D01*
X87308673Y-140140302D01*
X87212000Y-140373691D01*
X57943798Y-140373691D01*
X57690412Y-140268476D01*
X56602362Y-140267526D01*
X55596771Y-140683028D01*
X54826732Y-141451724D01*
X54409476Y-142456588D01*
X54408526Y-143544638D01*
X51829000Y-143544638D01*
X51829000Y-136316703D01*
X74174902Y-136316703D01*
X74279687Y-136588745D01*
X74907526Y-136823619D01*
X75577456Y-136800349D01*
X76088313Y-136588745D01*
X76193098Y-136316703D01*
X75184000Y-135307605D01*
X74174902Y-136316703D01*
X51829000Y-136316703D01*
X51829000Y-134851526D01*
X73488381Y-134851526D01*
X73511651Y-135521456D01*
X73723255Y-136032313D01*
X73995297Y-136137098D01*
X75004395Y-135128000D01*
X75363605Y-135128000D01*
X76372703Y-136137098D01*
X76644745Y-136032313D01*
X76879619Y-135404474D01*
X76856349Y-134734544D01*
X76644745Y-134223687D01*
X76372703Y-134118902D01*
X75363605Y-135128000D01*
X75004395Y-135128000D01*
X73995297Y-134118902D01*
X73723255Y-134223687D01*
X73488381Y-134851526D01*
X51829000Y-134851526D01*
X51829000Y-133939297D01*
X74174902Y-133939297D01*
X75184000Y-134948395D01*
X76193098Y-133939297D01*
X76088313Y-133667255D01*
X75460474Y-133432381D01*
X74790544Y-133455651D01*
X74279687Y-133667255D01*
X74174902Y-133939297D01*
X51829000Y-133939297D01*
X51829000Y-128857697D01*
X83150708Y-128857697D01*
X83406694Y-129477229D01*
X83880278Y-129951640D01*
X84499362Y-130208707D01*
X85169697Y-130209292D01*
X85789229Y-129953306D01*
X86263640Y-129479722D01*
X86520707Y-128860638D01*
X86521292Y-128190303D01*
X86265306Y-127570771D01*
X85791722Y-127096360D01*
X85172638Y-126839293D01*
X84502303Y-126838708D01*
X83882771Y-127094694D01*
X83408360Y-127568278D01*
X83151293Y-128187362D01*
X83150708Y-128857697D01*
X51829000Y-128857697D01*
X51829000Y-127333697D01*
X71466708Y-127333697D01*
X71722694Y-127953229D01*
X72196278Y-128427640D01*
X72815362Y-128684707D01*
X73485697Y-128685292D01*
X74105229Y-128429306D01*
X74579640Y-127955722D01*
X74836707Y-127336638D01*
X74837292Y-126666303D01*
X74581306Y-126046771D01*
X74107722Y-125572360D01*
X73488638Y-125315293D01*
X72818303Y-125314708D01*
X72198771Y-125570694D01*
X71724360Y-126044278D01*
X71467293Y-126663362D01*
X71466708Y-127333697D01*
X51829000Y-127333697D01*
X51829000Y-104775000D01*
X58171062Y-104775000D01*
X58149687Y-104796375D01*
X58149687Y-104796375D01*
G37*
X58149687Y-104796375D02*
X58263918Y-104910606D01*
X57994989Y-105011716D01*
X57765126Y-105628687D01*
X57788866Y-106286659D01*
X57994989Y-106784284D01*
X58263919Y-106885395D01*
X59251315Y-105898000D01*
X59237172Y-105883858D01*
X59309000Y-105812030D01*
X59309000Y-106199525D01*
X58443525Y-107065001D01*
X58511300Y-107245267D01*
X58494663Y-107252141D01*
X58028698Y-107717294D01*
X57776208Y-108325356D01*
X57775634Y-108983756D01*
X58027061Y-109592257D01*
X58469396Y-110035364D01*
X58028698Y-110475294D01*
X58006397Y-110529000D01*
X57242005Y-110529000D01*
X57242000Y-110528999D01*
X56959516Y-110585190D01*
X56903325Y-110596367D01*
X56616210Y-110788210D01*
X56616208Y-110788213D01*
X56270210Y-111134210D01*
X56078367Y-111421325D01*
X56078367Y-111421326D01*
X56010999Y-111760000D01*
X56011000Y-111760005D01*
X56011000Y-118871995D01*
X56010999Y-118872000D01*
X56035466Y-118995000D01*
X56078367Y-119210675D01*
X56155264Y-119325760D01*
X56270210Y-119497790D01*
X56524208Y-119751787D01*
X56524210Y-119751790D01*
X56784265Y-119925552D01*
X56811325Y-119943633D01*
X57150000Y-120011001D01*
X57150005Y-120011000D01*
X59852188Y-120011000D01*
X59108548Y-120318266D01*
X58380742Y-121044803D01*
X57986370Y-121994556D01*
X57985472Y-123022932D01*
X58378186Y-123973372D01*
X59104723Y-124701178D01*
X60054476Y-125095550D01*
X61082852Y-125096448D01*
X62033292Y-124703734D01*
X62761098Y-123977197D01*
X63155470Y-123027444D01*
X63156368Y-121999068D01*
X62763654Y-121048628D01*
X62037117Y-120320822D01*
X61290983Y-120011000D01*
X65419420Y-120011000D01*
X68970208Y-123561787D01*
X68970210Y-123561790D01*
X69257325Y-123753633D01*
X69313516Y-123764810D01*
X69596000Y-123821001D01*
X69596005Y-123821000D01*
X85343995Y-123821000D01*
X85344000Y-123821001D01*
X85626484Y-123764810D01*
X85682675Y-123753633D01*
X85969790Y-123561790D01*
X90282579Y-119249000D01*
X109604711Y-119249000D01*
X109527817Y-119325760D01*
X109519828Y-119345000D01*
X108120000Y-119345000D01*
X107685654Y-119431397D01*
X107465698Y-119578367D01*
X107317434Y-119677434D01*
X106244434Y-120750434D01*
X105998397Y-121118654D01*
X105912000Y-121553000D01*
X105912000Y-131722867D01*
X102069868Y-135565000D01*
X92894440Y-135565000D01*
X92894440Y-134500000D01*
X92850162Y-134264683D01*
X92711090Y-134048559D01*
X92498890Y-133903569D01*
X92247000Y-133852560D01*
X87847000Y-133852560D01*
X87611683Y-133896838D01*
X87395559Y-134035910D01*
X87250569Y-134248110D01*
X87199560Y-134500000D01*
X87199560Y-135815000D01*
X82710579Y-135815000D01*
X81949066Y-135053486D01*
X81949292Y-134794303D01*
X81693306Y-134174771D01*
X81219722Y-133700360D01*
X80600638Y-133443293D01*
X79930303Y-133442708D01*
X79310771Y-133698694D01*
X78836360Y-134172278D01*
X78579293Y-134791362D01*
X78578708Y-135461697D01*
X78834694Y-136081229D01*
X79308278Y-136555640D01*
X79927362Y-136812707D01*
X80597697Y-136813292D01*
X81027940Y-136635519D01*
X81718208Y-137325787D01*
X81718210Y-137325790D01*
X82005325Y-137517633D01*
X82061516Y-137528810D01*
X82344000Y-137585001D01*
X82344005Y-137585000D01*
X87199560Y-137585000D01*
X87199560Y-138900000D01*
X87243838Y-139135317D01*
X87382910Y-139351441D01*
X87595110Y-139496431D01*
X87847000Y-139547440D01*
X92247000Y-139547440D01*
X92325432Y-139532682D01*
X92365750Y-139573000D01*
X94615000Y-139573000D01*
X94615000Y-139553000D01*
X94869000Y-139553000D01*
X94869000Y-139573000D01*
X97118250Y-139573000D01*
X97277000Y-139414250D01*
X97277000Y-137835000D01*
X102540000Y-137835000D01*
X102974346Y-137748603D01*
X103342566Y-137502566D01*
X107849567Y-132995566D01*
X108095604Y-132627345D01*
X108182000Y-132193000D01*
X108182000Y-130659132D01*
X109867556Y-128973577D01*
X110097760Y-129204183D01*
X110159161Y-129229679D01*
X110100771Y-129253805D01*
X109527817Y-129825760D01*
X109217354Y-130573438D01*
X109216648Y-131383011D01*
X109525805Y-132131229D01*
X110097760Y-132704183D01*
X110845438Y-133014646D01*
X111655011Y-133015352D01*
X112403229Y-132706195D01*
X112976183Y-132134240D01*
X113286646Y-131386562D01*
X113287352Y-130576989D01*
X112978195Y-129828771D01*
X112406240Y-129255817D01*
X112344839Y-129230321D01*
X112403229Y-129206195D01*
X112976183Y-128634240D01*
X113286646Y-127886562D01*
X113287352Y-127076989D01*
X112978195Y-126328771D01*
X112406240Y-125755817D01*
X112344839Y-125730321D01*
X112403229Y-125706195D01*
X112976183Y-125134240D01*
X113286646Y-124386562D01*
X113287352Y-123576989D01*
X112978195Y-122828771D01*
X112406240Y-122255817D01*
X112344839Y-122230321D01*
X112403229Y-122206195D01*
X112976183Y-121634240D01*
X113286646Y-120886562D01*
X113287352Y-120076989D01*
X112978195Y-119328771D01*
X112406240Y-118755817D01*
X111839213Y-118520367D01*
X113909787Y-116449792D01*
X113909790Y-116449790D01*
X114101633Y-116162675D01*
X114169000Y-115824000D01*
X114169000Y-109728005D01*
X114169001Y-109728000D01*
X114101633Y-109389326D01*
X114101633Y-109389325D01*
X113909790Y-109102210D01*
X113909787Y-109102208D01*
X113646579Y-108839000D01*
X114459000Y-108839000D01*
X114459000Y-148318000D01*
X65332516Y-148318000D01*
X51829000Y-148209101D01*
X51829000Y-143544638D01*
X54408526Y-143544638D01*
X54824028Y-144550229D01*
X55592724Y-145320268D01*
X56597588Y-145737524D01*
X57685638Y-145738474D01*
X58691229Y-145322972D01*
X59461268Y-144554276D01*
X59878524Y-143549412D01*
X59879016Y-142985750D01*
X87212000Y-142985750D01*
X87212000Y-145026309D01*
X87308673Y-145259698D01*
X87487301Y-145438327D01*
X87720690Y-145535000D01*
X89761250Y-145535000D01*
X89920000Y-145376250D01*
X89920000Y-142827000D01*
X90174000Y-142827000D01*
X90174000Y-145376250D01*
X90332750Y-145535000D01*
X92373310Y-145535000D01*
X92606699Y-145438327D01*
X92785327Y-145259698D01*
X92882000Y-145026309D01*
X92882000Y-143544638D01*
X106408526Y-143544638D01*
X106824028Y-144550229D01*
X107592724Y-145320268D01*
X108597588Y-145737524D01*
X109685638Y-145738474D01*
X110691229Y-145322972D01*
X111461268Y-144554276D01*
X111878524Y-143549412D01*
X111879474Y-142461362D01*
X111463972Y-141455771D01*
X110695276Y-140685732D01*
X109690412Y-140268476D01*
X108602362Y-140267526D01*
X107596771Y-140683028D01*
X106826732Y-141451724D01*
X106409476Y-142456588D01*
X106408526Y-143544638D01*
X92882000Y-143544638D01*
X92882000Y-142985750D01*
X92723250Y-142827000D01*
X90174000Y-142827000D01*
X89920000Y-142827000D01*
X87370750Y-142827000D01*
X87212000Y-142985750D01*
X59879016Y-142985750D01*
X59879474Y-142461362D01*
X59463972Y-141455771D01*
X58695276Y-140685732D01*
X57943798Y-140373691D01*
X87212000Y-140373691D01*
X87212000Y-142414250D01*
X87370750Y-142573000D01*
X89920000Y-142573000D01*
X89920000Y-140023750D01*
X90174000Y-140023750D01*
X90174000Y-142573000D01*
X92723250Y-142573000D01*
X92882000Y-142414250D01*
X92882000Y-142235000D01*
X94456250Y-142235000D01*
X94615000Y-142076250D01*
X94615000Y-139827000D01*
X94869000Y-139827000D01*
X94869000Y-142076250D01*
X95027750Y-142235000D01*
X96768310Y-142235000D01*
X97001699Y-142138327D01*
X97180327Y-141959698D01*
X97277000Y-141726309D01*
X97277000Y-139985750D01*
X97118250Y-139827000D01*
X94869000Y-139827000D01*
X94615000Y-139827000D01*
X92365750Y-139827000D01*
X92327750Y-139865000D01*
X90332750Y-139865000D01*
X90174000Y-140023750D01*
X89920000Y-140023750D01*
X89761250Y-139865000D01*
X87720690Y-139865000D01*
X87487301Y-139961673D01*
X87308673Y-140140302D01*
X87212000Y-140373691D01*
X57943798Y-140373691D01*
X57690412Y-140268476D01*
X56602362Y-140267526D01*
X55596771Y-140683028D01*
X54826732Y-141451724D01*
X54409476Y-142456588D01*
X54408526Y-143544638D01*
X51829000Y-143544638D01*
X51829000Y-136316703D01*
X74174902Y-136316703D01*
X74279687Y-136588745D01*
X74907526Y-136823619D01*
X75577456Y-136800349D01*
X76088313Y-136588745D01*
X76193098Y-136316703D01*
X75184000Y-135307605D01*
X74174902Y-136316703D01*
X51829000Y-136316703D01*
X51829000Y-134851526D01*
X73488381Y-134851526D01*
X73511651Y-135521456D01*
X73723255Y-136032313D01*
X73995297Y-136137098D01*
X75004395Y-135128000D01*
X75363605Y-135128000D01*
X76372703Y-136137098D01*
X76644745Y-136032313D01*
X76879619Y-135404474D01*
X76856349Y-134734544D01*
X76644745Y-134223687D01*
X76372703Y-134118902D01*
X75363605Y-135128000D01*
X75004395Y-135128000D01*
X73995297Y-134118902D01*
X73723255Y-134223687D01*
X73488381Y-134851526D01*
X51829000Y-134851526D01*
X51829000Y-133939297D01*
X74174902Y-133939297D01*
X75184000Y-134948395D01*
X76193098Y-133939297D01*
X76088313Y-133667255D01*
X75460474Y-133432381D01*
X74790544Y-133455651D01*
X74279687Y-133667255D01*
X74174902Y-133939297D01*
X51829000Y-133939297D01*
X51829000Y-128857697D01*
X83150708Y-128857697D01*
X83406694Y-129477229D01*
X83880278Y-129951640D01*
X84499362Y-130208707D01*
X85169697Y-130209292D01*
X85789229Y-129953306D01*
X86263640Y-129479722D01*
X86520707Y-128860638D01*
X86521292Y-128190303D01*
X86265306Y-127570771D01*
X85791722Y-127096360D01*
X85172638Y-126839293D01*
X84502303Y-126838708D01*
X83882771Y-127094694D01*
X83408360Y-127568278D01*
X83151293Y-128187362D01*
X83150708Y-128857697D01*
X51829000Y-128857697D01*
X51829000Y-127333697D01*
X71466708Y-127333697D01*
X71722694Y-127953229D01*
X72196278Y-128427640D01*
X72815362Y-128684707D01*
X73485697Y-128685292D01*
X74105229Y-128429306D01*
X74579640Y-127955722D01*
X74836707Y-127336638D01*
X74837292Y-126666303D01*
X74581306Y-126046771D01*
X74107722Y-125572360D01*
X73488638Y-125315293D01*
X72818303Y-125314708D01*
X72198771Y-125570694D01*
X71724360Y-126044278D01*
X71467293Y-126663362D01*
X71466708Y-127333697D01*
X51829000Y-127333697D01*
X51829000Y-104775000D01*
X58171062Y-104775000D01*
X58149687Y-104796375D01*
G36*
X112399000Y-113226776D02*
X112246099Y-112857641D01*
X111968868Y-112746737D01*
X110923605Y-113792000D01*
X111968868Y-114837263D01*
X112246099Y-114726359D01*
X112399000Y-114320286D01*
X112399000Y-115457421D01*
X110377420Y-117479000D01*
X89916000Y-117479000D01*
X89577325Y-117546367D01*
X89290210Y-117738210D01*
X89290208Y-117738213D01*
X86319696Y-120708724D01*
X86520707Y-120224638D01*
X86521292Y-119554303D01*
X86265306Y-118934771D01*
X85791722Y-118460360D01*
X85172638Y-118203293D01*
X84502303Y-118202708D01*
X83882771Y-118458694D01*
X83408360Y-118932278D01*
X83151293Y-119551362D01*
X83150708Y-120221697D01*
X83406694Y-120841229D01*
X83880278Y-121315640D01*
X84499362Y-121572707D01*
X85169697Y-121573292D01*
X85656111Y-121372309D01*
X84977420Y-122051000D01*
X73559009Y-122051000D01*
X74105229Y-121825306D01*
X74579640Y-121351722D01*
X74836707Y-120732638D01*
X74837292Y-120062303D01*
X74581306Y-119442771D01*
X74107722Y-118968360D01*
X73488638Y-118711293D01*
X72818303Y-118710708D01*
X72198771Y-118966694D01*
X71724360Y-119440278D01*
X71694994Y-119511000D01*
X68946579Y-119511000D01*
X66919790Y-117484210D01*
X66911993Y-117479000D01*
X66632675Y-117292367D01*
X66576484Y-117281190D01*
X66294000Y-117224999D01*
X66293995Y-117225000D01*
X61072579Y-117225000D01*
X60315920Y-116468340D01*
X60315920Y-115879448D01*
X60567061Y-116487257D01*
X61032214Y-116953222D01*
X61640276Y-117205712D01*
X62298676Y-117206286D01*
X62907177Y-116954859D01*
X63373142Y-116489706D01*
X63395443Y-116436000D01*
X79774995Y-116436000D01*
X79775000Y-116436001D01*
X80057484Y-116379810D01*
X80113675Y-116368633D01*
X80400790Y-116176790D01*
X81560711Y-115016868D01*
X109698737Y-115016868D01*
X109809641Y-115294099D01*
X110455593Y-115537323D01*
X111145453Y-115514836D01*
X111678359Y-115294099D01*
X111789263Y-115016868D01*
X110744000Y-113971605D01*
X109698737Y-115016868D01*
X81560711Y-115016868D01*
X83073986Y-113503593D01*
X108998677Y-113503593D01*
X109021164Y-114193453D01*
X109241901Y-114726359D01*
X109519132Y-114837263D01*
X110564395Y-113792000D01*
X109519132Y-112746737D01*
X109241901Y-112857641D01*
X108998677Y-113503593D01*
X83073986Y-113503593D01*
X84440579Y-112137000D01*
X109232402Y-112137000D01*
X109272281Y-112233515D01*
X109759918Y-112722004D01*
X109920139Y-112788534D01*
X110744000Y-113612395D01*
X111567305Y-112789090D01*
X111725515Y-112723719D01*
X112214004Y-112236082D01*
X112399000Y-111790563D01*
X112399000Y-113226776D01*
X112399000Y-113226776D01*
G37*
X112399000Y-113226776D02*
X112246099Y-112857641D01*
X111968868Y-112746737D01*
X110923605Y-113792000D01*
X111968868Y-114837263D01*
X112246099Y-114726359D01*
X112399000Y-114320286D01*
X112399000Y-115457421D01*
X110377420Y-117479000D01*
X89916000Y-117479000D01*
X89577325Y-117546367D01*
X89290210Y-117738210D01*
X89290208Y-117738213D01*
X86319696Y-120708724D01*
X86520707Y-120224638D01*
X86521292Y-119554303D01*
X86265306Y-118934771D01*
X85791722Y-118460360D01*
X85172638Y-118203293D01*
X84502303Y-118202708D01*
X83882771Y-118458694D01*
X83408360Y-118932278D01*
X83151293Y-119551362D01*
X83150708Y-120221697D01*
X83406694Y-120841229D01*
X83880278Y-121315640D01*
X84499362Y-121572707D01*
X85169697Y-121573292D01*
X85656111Y-121372309D01*
X84977420Y-122051000D01*
X73559009Y-122051000D01*
X74105229Y-121825306D01*
X74579640Y-121351722D01*
X74836707Y-120732638D01*
X74837292Y-120062303D01*
X74581306Y-119442771D01*
X74107722Y-118968360D01*
X73488638Y-118711293D01*
X72818303Y-118710708D01*
X72198771Y-118966694D01*
X71724360Y-119440278D01*
X71694994Y-119511000D01*
X68946579Y-119511000D01*
X66919790Y-117484210D01*
X66911993Y-117479000D01*
X66632675Y-117292367D01*
X66576484Y-117281190D01*
X66294000Y-117224999D01*
X66293995Y-117225000D01*
X61072579Y-117225000D01*
X60315920Y-116468340D01*
X60315920Y-115879448D01*
X60567061Y-116487257D01*
X61032214Y-116953222D01*
X61640276Y-117205712D01*
X62298676Y-117206286D01*
X62907177Y-116954859D01*
X63373142Y-116489706D01*
X63395443Y-116436000D01*
X79774995Y-116436000D01*
X79775000Y-116436001D01*
X80057484Y-116379810D01*
X80113675Y-116368633D01*
X80400790Y-116176790D01*
X81560711Y-115016868D01*
X109698737Y-115016868D01*
X109809641Y-115294099D01*
X110455593Y-115537323D01*
X111145453Y-115514836D01*
X111678359Y-115294099D01*
X111789263Y-115016868D01*
X110744000Y-113971605D01*
X109698737Y-115016868D01*
X81560711Y-115016868D01*
X83073986Y-113503593D01*
X108998677Y-113503593D01*
X109021164Y-114193453D01*
X109241901Y-114726359D01*
X109519132Y-114837263D01*
X110564395Y-113792000D01*
X109519132Y-112746737D01*
X109241901Y-112857641D01*
X108998677Y-113503593D01*
X83073986Y-113503593D01*
X84440579Y-112137000D01*
X109232402Y-112137000D01*
X109272281Y-112233515D01*
X109759918Y-112722004D01*
X109920139Y-112788534D01*
X110744000Y-113612395D01*
X111567305Y-112789090D01*
X111725515Y-112723719D01*
X112214004Y-112236082D01*
X112399000Y-111790563D01*
X112399000Y-113226776D01*
G36*
X114459000Y-106430972D02*
X112489281Y-106459111D01*
X112466836Y-105770547D01*
X112246099Y-105237641D01*
X111968868Y-105126737D01*
X110923605Y-106172000D01*
X110937748Y-106186143D01*
X110758143Y-106365748D01*
X110744000Y-106351605D01*
X110729858Y-106365748D01*
X110550253Y-106186143D01*
X110564395Y-106172000D01*
X109519132Y-105126737D01*
X109241901Y-105237641D01*
X108998677Y-105883593D01*
X109019053Y-106508686D01*
X79246186Y-106934013D01*
X79196924Y-106944724D01*
X79155710Y-106973756D01*
X79129038Y-107016536D01*
X79121000Y-107061000D01*
X79121000Y-113030000D01*
X68221580Y-113030000D01*
X68442941Y-112808639D01*
X68751362Y-112936707D01*
X69421697Y-112937292D01*
X70041229Y-112681306D01*
X70515640Y-112207722D01*
X70772707Y-111588638D01*
X70773292Y-110918303D01*
X70517306Y-110298771D01*
X70043722Y-109824360D01*
X69424638Y-109567293D01*
X68754303Y-109566708D01*
X68134771Y-109822694D01*
X67660360Y-110296278D01*
X67403293Y-110915362D01*
X67402918Y-111345503D01*
X66840420Y-111908000D01*
X63395958Y-111908000D01*
X63374779Y-111856743D01*
X62932444Y-111413636D01*
X63373142Y-110973706D01*
X63395443Y-110920000D01*
X65964995Y-110920000D01*
X65965000Y-110920001D01*
X66247484Y-110863810D01*
X66303675Y-110852633D01*
X66590790Y-110660790D01*
X68488163Y-108763417D01*
X68751362Y-108872707D01*
X69421697Y-108873292D01*
X70041229Y-108617306D01*
X70515640Y-108143722D01*
X70772707Y-107524638D01*
X70773292Y-106854303D01*
X70517306Y-106234771D01*
X70043722Y-105760360D01*
X69424638Y-105503293D01*
X68754303Y-105502708D01*
X68134771Y-105758694D01*
X67660360Y-106232278D01*
X67403293Y-106851362D01*
X67402862Y-107345559D01*
X65598420Y-109150000D01*
X63395958Y-109150000D01*
X63374779Y-109098743D01*
X62932444Y-108655636D01*
X63373142Y-108215706D01*
X63395443Y-108162000D01*
X64722995Y-108162000D01*
X64723000Y-108162001D01*
X65005484Y-108105810D01*
X65061675Y-108094633D01*
X65348790Y-107902790D01*
X68533385Y-104718195D01*
X68751362Y-104808707D01*
X69421697Y-104809292D01*
X70041229Y-104553306D01*
X70515640Y-104079722D01*
X70772707Y-103460638D01*
X70773292Y-102790303D01*
X70517306Y-102170771D01*
X70043722Y-101696360D01*
X69424638Y-101439293D01*
X68754303Y-101438708D01*
X68134771Y-101694694D01*
X67660360Y-102168278D01*
X67403293Y-102787362D01*
X67402806Y-103345615D01*
X64356420Y-106392000D01*
X63395958Y-106392000D01*
X63374779Y-106340743D01*
X62909626Y-105874778D01*
X62890349Y-105866773D01*
X62958315Y-105686001D01*
X61970920Y-104698605D01*
X61956778Y-104712748D01*
X61777172Y-104533142D01*
X61791315Y-104519000D01*
X62150525Y-104519000D01*
X63137921Y-105506395D01*
X63406851Y-105405284D01*
X63636714Y-104788313D01*
X63612974Y-104130341D01*
X63406851Y-103632716D01*
X63137921Y-103531605D01*
X62150525Y-104519000D01*
X61791315Y-104519000D01*
X61777172Y-104504858D01*
X61956778Y-104325253D01*
X61970920Y-104339395D01*
X62958315Y-103351999D01*
X62890540Y-103171733D01*
X62907177Y-103164859D01*
X63373142Y-102699706D01*
X63625632Y-102091644D01*
X63626206Y-101433244D01*
X63374779Y-100824743D01*
X62932444Y-100381636D01*
X63065609Y-100248703D01*
X68078902Y-100248703D01*
X68183687Y-100520745D01*
X68811526Y-100755619D01*
X69481456Y-100732349D01*
X69992313Y-100520745D01*
X70097098Y-100248703D01*
X69088000Y-99239605D01*
X68078902Y-100248703D01*
X63065609Y-100248703D01*
X63373142Y-99941706D01*
X63625632Y-99333644D01*
X63626111Y-98783526D01*
X67392381Y-98783526D01*
X67415651Y-99453456D01*
X67627255Y-99964313D01*
X67899297Y-100069098D01*
X68908395Y-99060000D01*
X69267605Y-99060000D01*
X70276703Y-100069098D01*
X70548745Y-99964313D01*
X70783619Y-99336474D01*
X70760349Y-98666544D01*
X70548745Y-98155687D01*
X70276703Y-98050902D01*
X69267605Y-99060000D01*
X68908395Y-99060000D01*
X67899297Y-98050902D01*
X67627255Y-98155687D01*
X67392381Y-98783526D01*
X63626111Y-98783526D01*
X63626206Y-98675244D01*
X63374779Y-98066743D01*
X62932444Y-97623636D01*
X63373142Y-97183706D01*
X63625632Y-96575644D01*
X63626206Y-95917244D01*
X63516196Y-95651000D01*
X63750487Y-95651000D01*
X63799326Y-95683633D01*
X64138000Y-95751001D01*
X64476674Y-95683633D01*
X64763790Y-95491790D01*
X64882580Y-95373000D01*
X79822502Y-95373000D01*
X79850694Y-95441229D01*
X80324278Y-95915640D01*
X80943362Y-96172707D01*
X81613697Y-96173292D01*
X82233229Y-95917306D01*
X82707640Y-95443722D01*
X82737006Y-95373000D01*
X92657178Y-95373000D01*
X92777201Y-95422838D01*
X93149167Y-95423162D01*
X93492943Y-95281117D01*
X93756192Y-95018327D01*
X93898838Y-94674799D01*
X93899162Y-94302833D01*
X93757117Y-93959057D01*
X93494327Y-93695808D01*
X93251556Y-93595000D01*
X101995420Y-93595000D01*
X103006208Y-94605787D01*
X103006210Y-94605790D01*
X106562208Y-98161787D01*
X106562210Y-98161790D01*
X107070208Y-98669787D01*
X107070210Y-98669790D01*
X107357325Y-98861633D01*
X107696000Y-98929000D01*
X110885420Y-98929000D01*
X111472140Y-99515719D01*
X111090627Y-99357301D01*
X110400401Y-99356699D01*
X109762485Y-99620281D01*
X109273996Y-100107918D01*
X109232853Y-100207000D01*
X80630579Y-100207000D01*
X76571790Y-96148210D01*
X76284675Y-95956367D01*
X76228484Y-95945190D01*
X75946000Y-95888999D01*
X75945995Y-95889000D01*
X65715238Y-95889000D01*
X65554327Y-95727808D01*
X65210799Y-95585162D01*
X64838833Y-95584838D01*
X64495057Y-95726883D01*
X64231808Y-95989673D01*
X64089162Y-96333201D01*
X64088838Y-96705167D01*
X64230883Y-97048943D01*
X64493673Y-97312192D01*
X64614987Y-97362566D01*
X64652208Y-97399787D01*
X64652210Y-97399790D01*
X64856064Y-97536000D01*
X64939325Y-97591633D01*
X65278000Y-97659001D01*
X65278005Y-97659000D01*
X68160674Y-97659000D01*
X68078902Y-97871297D01*
X69088000Y-98880395D01*
X70097098Y-97871297D01*
X70015326Y-97659000D01*
X75579420Y-97659000D01*
X79638208Y-101717787D01*
X79638210Y-101717790D01*
X79905968Y-101896699D01*
X79925325Y-101909633D01*
X80264000Y-101977001D01*
X80264005Y-101977000D01*
X109232402Y-101977000D01*
X109272281Y-102073515D01*
X109560338Y-102362075D01*
X109273996Y-102647918D01*
X109009301Y-103285373D01*
X109008699Y-103975599D01*
X109272281Y-104613515D01*
X109759918Y-105102004D01*
X109920139Y-105168534D01*
X110744000Y-105992395D01*
X111567305Y-105169090D01*
X111725515Y-105103719D01*
X112214004Y-104616082D01*
X112255147Y-104517000D01*
X112775995Y-104517000D01*
X112776000Y-104517001D01*
X113058484Y-104460810D01*
X113114675Y-104449633D01*
X113401790Y-104257790D01*
X113909787Y-103749792D01*
X113909790Y-103749790D01*
X114101633Y-103462675D01*
X114169000Y-103124000D01*
X114169000Y-100076005D01*
X114169001Y-100076000D01*
X114101633Y-99737326D01*
X114101633Y-99737325D01*
X113909790Y-99450210D01*
X113909787Y-99450208D01*
X111877790Y-97418210D01*
X111832055Y-97387651D01*
X111590675Y-97226367D01*
X111534484Y-97215190D01*
X111252000Y-97158999D01*
X111251995Y-97159000D01*
X108062580Y-97159000D01*
X107813790Y-96910210D01*
X107813787Y-96910208D01*
X106523304Y-95619724D01*
X108973882Y-95619724D01*
X109121455Y-95928106D01*
X109876031Y-96221405D01*
X110685409Y-96203614D01*
X111350545Y-95928106D01*
X111498118Y-95619724D01*
X110236000Y-94357605D01*
X108973882Y-95619724D01*
X106523304Y-95619724D01*
X104721611Y-93818031D01*
X108192595Y-93818031D01*
X108210386Y-94627409D01*
X108485894Y-95292545D01*
X108794276Y-95440118D01*
X110056395Y-94178000D01*
X110415605Y-94178000D01*
X111677724Y-95440118D01*
X111986106Y-95292545D01*
X112279405Y-94537969D01*
X112261614Y-93728591D01*
X111986106Y-93063455D01*
X111677724Y-92915882D01*
X110415605Y-94178000D01*
X110056395Y-94178000D01*
X108794276Y-92915882D01*
X108485894Y-93063455D01*
X108192595Y-93818031D01*
X104721611Y-93818031D01*
X104257790Y-93354210D01*
X104257787Y-93354208D01*
X102987790Y-92084210D01*
X102986190Y-92083141D01*
X102700675Y-91892367D01*
X102644484Y-91881190D01*
X102362000Y-91824999D01*
X102361995Y-91825000D01*
X82733685Y-91825000D01*
X82964707Y-91268638D01*
X82965292Y-90598303D01*
X82709306Y-89978771D01*
X82235722Y-89504360D01*
X81616638Y-89247293D01*
X80946303Y-89246708D01*
X80326771Y-89502694D01*
X79852360Y-89976278D01*
X79822994Y-90047000D01*
X79674887Y-90047000D01*
X79675162Y-89730833D01*
X79533117Y-89387057D01*
X79450000Y-89303795D01*
X79450000Y-88045819D01*
X79519705Y-88031954D01*
X79750046Y-87878046D01*
X80079388Y-87548703D01*
X84334902Y-87548703D01*
X84439687Y-87820745D01*
X85067526Y-88055619D01*
X85737456Y-88032349D01*
X86248313Y-87820745D01*
X86353098Y-87548703D01*
X97034902Y-87548703D01*
X97139687Y-87820745D01*
X97767526Y-88055619D01*
X98437456Y-88032349D01*
X98948313Y-87820745D01*
X99053098Y-87548703D01*
X98044000Y-86539605D01*
X97034902Y-87548703D01*
X86353098Y-87548703D01*
X85344000Y-86539605D01*
X84334902Y-87548703D01*
X80079388Y-87548703D01*
X80258045Y-87370046D01*
X80411954Y-87139705D01*
X80466000Y-86868000D01*
X80411954Y-86596295D01*
X80258045Y-86365955D01*
X80027705Y-86212046D01*
X79756000Y-86158000D01*
X79484295Y-86212046D01*
X79253954Y-86365955D01*
X78953908Y-86666000D01*
X78740000Y-86666000D01*
X78468295Y-86720046D01*
X78237954Y-86873954D01*
X78084046Y-87104295D01*
X78030000Y-87376000D01*
X78030000Y-89303624D01*
X77947808Y-89385673D01*
X77805162Y-89729201D01*
X77804885Y-90047000D01*
X63479836Y-90047000D01*
X63374779Y-89792743D01*
X62932444Y-89349636D01*
X63276680Y-89006000D01*
X75604995Y-89006000D01*
X75605000Y-89006001D01*
X76001077Y-88927215D01*
X76336856Y-88702856D01*
X78956186Y-86083526D01*
X83648381Y-86083526D01*
X83671651Y-86753456D01*
X83883255Y-87264313D01*
X84155297Y-87369098D01*
X85164395Y-86360000D01*
X85523605Y-86360000D01*
X86532703Y-87369098D01*
X86804745Y-87264313D01*
X87039619Y-86636474D01*
X87020413Y-86083526D01*
X96348381Y-86083526D01*
X96371651Y-86753456D01*
X96583255Y-87264313D01*
X96855297Y-87369098D01*
X97864395Y-86360000D01*
X98223605Y-86360000D01*
X99232703Y-87369098D01*
X99504745Y-87264313D01*
X99739619Y-86636474D01*
X99716349Y-85966544D01*
X99504745Y-85455687D01*
X99232703Y-85350902D01*
X98223605Y-86360000D01*
X97864395Y-86360000D01*
X96855297Y-85350902D01*
X96583255Y-85455687D01*
X96348381Y-86083526D01*
X87020413Y-86083526D01*
X87016349Y-85966544D01*
X86804745Y-85455687D01*
X86532703Y-85350902D01*
X85523605Y-86360000D01*
X85164395Y-86360000D01*
X84155297Y-85350902D01*
X83883255Y-85455687D01*
X83648381Y-86083526D01*
X78956186Y-86083526D01*
X79868415Y-85171297D01*
X84334902Y-85171297D01*
X85344000Y-86180395D01*
X86353098Y-85171297D01*
X97034902Y-85171297D01*
X98044000Y-86180395D01*
X99053098Y-85171297D01*
X98948313Y-84899255D01*
X98320474Y-84664381D01*
X97650544Y-84687651D01*
X97139687Y-84899255D01*
X97034902Y-85171297D01*
X86353098Y-85171297D01*
X86248313Y-84899255D01*
X85620474Y-84664381D01*
X84950544Y-84687651D01*
X84439687Y-84899255D01*
X84334902Y-85171297D01*
X79868415Y-85171297D01*
X80692712Y-84347000D01*
X102187288Y-84347000D01*
X108201276Y-90360987D01*
X108200648Y-91081011D01*
X108509805Y-91829229D01*
X109081760Y-92402183D01*
X109132581Y-92423286D01*
X109121455Y-92427894D01*
X108973882Y-92736276D01*
X110236000Y-93998395D01*
X111498118Y-92736276D01*
X111350545Y-92427894D01*
X111339893Y-92423754D01*
X111387229Y-92404195D01*
X111960183Y-91832240D01*
X112270646Y-91084562D01*
X112271352Y-90274989D01*
X111962195Y-89526771D01*
X111390240Y-88953817D01*
X111328839Y-88928321D01*
X111387229Y-88904195D01*
X111960183Y-88332240D01*
X112270646Y-87584562D01*
X112271352Y-86774989D01*
X111962195Y-86026771D01*
X111390240Y-85453817D01*
X110642562Y-85143354D01*
X109832989Y-85142648D01*
X109084771Y-85451805D01*
X108511817Y-86023760D01*
X108201354Y-86771438D01*
X108200777Y-87433066D01*
X103347856Y-82580144D01*
X103012077Y-82355785D01*
X102616000Y-82276999D01*
X102615995Y-82277000D01*
X80264005Y-82277000D01*
X80264000Y-82276999D01*
X79867923Y-82355785D01*
X79532144Y-82580144D01*
X75176288Y-86936000D01*
X63276208Y-86936000D01*
X62932444Y-86591636D01*
X63373142Y-86151706D01*
X63395443Y-86098000D01*
X69472995Y-86098000D01*
X69473000Y-86098001D01*
X69755484Y-86041810D01*
X69811675Y-86030633D01*
X70098790Y-85838790D01*
X71709086Y-84228494D01*
X71708838Y-84513167D01*
X71850883Y-84856943D01*
X72113673Y-85120192D01*
X72457201Y-85262838D01*
X72829167Y-85263162D01*
X73172943Y-85121117D01*
X73436192Y-84858327D01*
X73486566Y-84737014D01*
X74534579Y-83689000D01*
X76401178Y-83689000D01*
X76521201Y-83738838D01*
X76893167Y-83739162D01*
X77236943Y-83597117D01*
X77500192Y-83334327D01*
X77642838Y-82990799D01*
X77643162Y-82618833D01*
X77501117Y-82275057D01*
X77238327Y-82011808D01*
X76894799Y-81869162D01*
X76522833Y-81868838D01*
X76401431Y-81919000D01*
X74168000Y-81919000D01*
X73981477Y-81956102D01*
X74788579Y-81149000D01*
X94487995Y-81149000D01*
X94488000Y-81149001D01*
X94770484Y-81092810D01*
X94826675Y-81081633D01*
X95113790Y-80889790D01*
X95912835Y-80090745D01*
X96032943Y-80041117D01*
X96296192Y-79778327D01*
X96438838Y-79434799D01*
X96439162Y-79062833D01*
X96297117Y-78719057D01*
X96034327Y-78455808D01*
X95690799Y-78313162D01*
X95531556Y-78313023D01*
X95912834Y-77931745D01*
X96032943Y-77882117D01*
X96296192Y-77619327D01*
X96438838Y-77275799D01*
X96439162Y-76903833D01*
X96326435Y-76631011D01*
X108200648Y-76631011D01*
X108509805Y-77379229D01*
X109081760Y-77952183D01*
X109143161Y-77977679D01*
X109084771Y-78001805D01*
X108511817Y-78573760D01*
X108201354Y-79321438D01*
X108200648Y-80131011D01*
X108509805Y-80879229D01*
X109081760Y-81452183D01*
X109829438Y-81762646D01*
X110639011Y-81763352D01*
X111387229Y-81454195D01*
X111960183Y-80882240D01*
X112270646Y-80134562D01*
X112271352Y-79324989D01*
X111962195Y-78576771D01*
X111390240Y-78003817D01*
X111328839Y-77978321D01*
X111387229Y-77954195D01*
X111960183Y-77382240D01*
X112270646Y-76634562D01*
X112271352Y-75824989D01*
X111962195Y-75076771D01*
X111390240Y-74503817D01*
X110642562Y-74193354D01*
X109832989Y-74192648D01*
X109084771Y-74501805D01*
X108511817Y-75073760D01*
X108201354Y-75821438D01*
X108200648Y-76631011D01*
X96326435Y-76631011D01*
X96297117Y-76560057D01*
X96034327Y-76296808D01*
X95690799Y-76154162D01*
X95318833Y-76153838D01*
X94975057Y-76295883D01*
X94711808Y-76558673D01*
X94661434Y-76679987D01*
X93232420Y-78109000D01*
X65024005Y-78109000D01*
X65024000Y-78108999D01*
X64741516Y-78165190D01*
X64685325Y-78176367D01*
X64398210Y-78368210D01*
X64398208Y-78368213D01*
X63641420Y-79125000D01*
X58420000Y-79125000D01*
X58081325Y-79192367D01*
X57794210Y-79384210D01*
X57794208Y-79384213D01*
X56270210Y-80908210D01*
X56078367Y-81195325D01*
X56078367Y-81195326D01*
X56010999Y-81534000D01*
X56011000Y-81534005D01*
X56011000Y-85597995D01*
X56010999Y-85598000D01*
X56058896Y-85838790D01*
X56078367Y-85936675D01*
X56186161Y-86098001D01*
X56270210Y-86223790D01*
X57264208Y-87217787D01*
X57264210Y-87217790D01*
X57551325Y-87409633D01*
X57890000Y-87477001D01*
X57890005Y-87477000D01*
X58005882Y-87477000D01*
X58027061Y-87528257D01*
X58469396Y-87971364D01*
X58028698Y-88411294D01*
X57776208Y-89019356D01*
X57775634Y-89677756D01*
X58027061Y-90286257D01*
X58469396Y-90729364D01*
X58028698Y-91169294D01*
X57776208Y-91777356D01*
X57775634Y-92435756D01*
X58027061Y-93044257D01*
X58469396Y-93487364D01*
X58028698Y-93927294D01*
X57776208Y-94535356D01*
X57775634Y-95193756D01*
X58027061Y-95802257D01*
X58469396Y-96245364D01*
X58028698Y-96685294D01*
X57776208Y-97293356D01*
X57775634Y-97951756D01*
X58027061Y-98560257D01*
X58469396Y-99003364D01*
X58028698Y-99443294D01*
X57776208Y-100051356D01*
X57775634Y-100709756D01*
X58027061Y-101318257D01*
X58469396Y-101761364D01*
X58028698Y-102201294D01*
X57776208Y-102809356D01*
X57776155Y-102870000D01*
X51829000Y-102870000D01*
X51829000Y-76006932D01*
X57985472Y-76006932D01*
X58378186Y-76957372D01*
X59104723Y-77685178D01*
X60054476Y-78079550D01*
X61082852Y-78080448D01*
X62033292Y-77687734D01*
X62761098Y-76961197D01*
X63155470Y-76011444D01*
X63156368Y-74983068D01*
X62763654Y-74032628D01*
X62217677Y-73485697D01*
X90262708Y-73485697D01*
X90518694Y-74105229D01*
X90992278Y-74579640D01*
X91611362Y-74836707D01*
X92281697Y-74837292D01*
X92901229Y-74581306D01*
X93375640Y-74107722D01*
X93632707Y-73488638D01*
X93633292Y-72818303D01*
X93377306Y-72198771D01*
X92903722Y-71724360D01*
X92284638Y-71467293D01*
X91614303Y-71466708D01*
X90994771Y-71722694D01*
X90520360Y-72196278D01*
X90263293Y-72815362D01*
X90262708Y-73485697D01*
X62217677Y-73485697D01*
X62037117Y-73304822D01*
X61087364Y-72910450D01*
X60058988Y-72909552D01*
X59108548Y-73302266D01*
X58380742Y-74028803D01*
X57986370Y-74978556D01*
X57985472Y-76006932D01*
X51829000Y-76006932D01*
X51829000Y-70501724D01*
X108973882Y-70501724D01*
X109121455Y-70810106D01*
X109876031Y-71103405D01*
X110685409Y-71085614D01*
X111350545Y-70810106D01*
X111498118Y-70501724D01*
X110236000Y-69239605D01*
X108973882Y-70501724D01*
X51829000Y-70501724D01*
X51829000Y-65167724D01*
X67825882Y-65167724D01*
X67973455Y-65476106D01*
X68728031Y-65769405D01*
X69537409Y-65751614D01*
X70202545Y-65476106D01*
X70350118Y-65167724D01*
X83065882Y-65167724D01*
X83213455Y-65476106D01*
X83968031Y-65769405D01*
X84777409Y-65751614D01*
X85442545Y-65476106D01*
X85570285Y-65209167D01*
X91012838Y-65209167D01*
X91063000Y-65330569D01*
X91063000Y-68273178D01*
X91013162Y-68393201D01*
X91012838Y-68765167D01*
X91154883Y-69108943D01*
X91417673Y-69372192D01*
X91761201Y-69514838D01*
X92133167Y-69515162D01*
X92476943Y-69373117D01*
X92740192Y-69110327D01*
X92882838Y-68766799D01*
X92882896Y-68700031D01*
X108192595Y-68700031D01*
X108210386Y-69509409D01*
X108485894Y-70174545D01*
X108794276Y-70322118D01*
X110056395Y-69060000D01*
X110415605Y-69060000D01*
X111677724Y-70322118D01*
X111986106Y-70174545D01*
X112279405Y-69419969D01*
X112261614Y-68610591D01*
X111986106Y-67945455D01*
X111677724Y-67797882D01*
X110415605Y-69060000D01*
X110056395Y-69060000D01*
X108794276Y-67797882D01*
X108485894Y-67945455D01*
X108192595Y-68700031D01*
X92882896Y-68700031D01*
X92883162Y-68394833D01*
X92833000Y-68273431D01*
X92833000Y-65330822D01*
X92882838Y-65210799D01*
X92883162Y-64838833D01*
X92741117Y-64495057D01*
X92478327Y-64231808D01*
X92134799Y-64089162D01*
X91762833Y-64088838D01*
X91419057Y-64230883D01*
X91155808Y-64493673D01*
X91013162Y-64837201D01*
X91012838Y-65209167D01*
X85570285Y-65209167D01*
X85590118Y-65167724D01*
X84328000Y-63905605D01*
X83065882Y-65167724D01*
X70350118Y-65167724D01*
X69088000Y-63905605D01*
X67825882Y-65167724D01*
X51829000Y-65167724D01*
X51829000Y-63366031D01*
X67044595Y-63366031D01*
X67062386Y-64175409D01*
X67337894Y-64840545D01*
X67646276Y-64988118D01*
X68908395Y-63726000D01*
X69267605Y-63726000D01*
X70529724Y-64988118D01*
X70838106Y-64840545D01*
X71131405Y-64085969D01*
X71115580Y-63366031D01*
X82284595Y-63366031D01*
X82302386Y-64175409D01*
X82577894Y-64840545D01*
X82886276Y-64988118D01*
X84148395Y-63726000D01*
X84507605Y-63726000D01*
X85769724Y-64988118D01*
X86078106Y-64840545D01*
X86371405Y-64085969D01*
X86353614Y-63276591D01*
X86078106Y-62611455D01*
X85769724Y-62463882D01*
X84507605Y-63726000D01*
X84148395Y-63726000D01*
X82886276Y-62463882D01*
X82577894Y-62611455D01*
X82284595Y-63366031D01*
X71115580Y-63366031D01*
X71113614Y-63276591D01*
X70838106Y-62611455D01*
X70529724Y-62463882D01*
X69267605Y-63726000D01*
X68908395Y-63726000D01*
X67646276Y-62463882D01*
X67337894Y-62611455D01*
X67044595Y-63366031D01*
X51829000Y-63366031D01*
X51829000Y-60629011D01*
X67052648Y-60629011D01*
X67361805Y-61377229D01*
X67933760Y-61950183D01*
X67984581Y-61971286D01*
X67973455Y-61975894D01*
X67825882Y-62284276D01*
X69088000Y-63546395D01*
X70350118Y-62284276D01*
X70202545Y-61975894D01*
X70191893Y-61971754D01*
X70239229Y-61952195D01*
X70812183Y-61380240D01*
X70820172Y-61361000D01*
X82595099Y-61361000D01*
X82601805Y-61377229D01*
X83173760Y-61950183D01*
X83224581Y-61971286D01*
X83213455Y-61975894D01*
X83065882Y-62284276D01*
X84328000Y-63546395D01*
X85590118Y-62284276D01*
X85442545Y-61975894D01*
X85431893Y-61971754D01*
X85479229Y-61952195D01*
X86052183Y-61380240D01*
X86060172Y-61361000D01*
X92174000Y-61361000D01*
X92608346Y-61274603D01*
X92976566Y-61028566D01*
X95847132Y-58158000D01*
X97701423Y-58158000D01*
X97251360Y-58607278D01*
X96994293Y-59226362D01*
X96993708Y-59896697D01*
X97249694Y-60516229D01*
X97723278Y-60990640D01*
X98342362Y-61247707D01*
X99012697Y-61248292D01*
X99632229Y-60992306D01*
X100106640Y-60518722D01*
X100266576Y-60133555D01*
X100424694Y-60516229D01*
X100898278Y-60990640D01*
X101517362Y-61247707D01*
X102187697Y-61248292D01*
X102807229Y-60992306D01*
X103281640Y-60518722D01*
X103538707Y-59899638D01*
X103539292Y-59229303D01*
X103283306Y-58609771D01*
X102832323Y-58158000D01*
X104304868Y-58158000D01*
X109101000Y-62954132D01*
X109101000Y-63827099D01*
X109084771Y-63833805D01*
X108511817Y-64405760D01*
X108201354Y-65153438D01*
X108200648Y-65963011D01*
X108509805Y-66711229D01*
X109081760Y-67284183D01*
X109132581Y-67305286D01*
X109121455Y-67309894D01*
X108973882Y-67618276D01*
X110236000Y-68880395D01*
X111498118Y-67618276D01*
X111350545Y-67309894D01*
X111339893Y-67305754D01*
X111387229Y-67286195D01*
X111960183Y-66714240D01*
X112270646Y-65966562D01*
X112271352Y-65156989D01*
X111962195Y-64408771D01*
X111390240Y-63835817D01*
X111371000Y-63827828D01*
X111371000Y-62484000D01*
X111284603Y-62049654D01*
X111038566Y-61681434D01*
X105577566Y-56220434D01*
X105209346Y-55974397D01*
X104775000Y-55888000D01*
X95377000Y-55888000D01*
X94942654Y-55974397D01*
X94574434Y-56220434D01*
X91703868Y-59091000D01*
X86060901Y-59091000D01*
X86054195Y-59074771D01*
X85482240Y-58501817D01*
X84734562Y-58191354D01*
X83924989Y-58190648D01*
X83176771Y-58499805D01*
X82603817Y-59071760D01*
X82595828Y-59091000D01*
X70820901Y-59091000D01*
X70814195Y-59074771D01*
X70242240Y-58501817D01*
X69494562Y-58191354D01*
X68684989Y-58190648D01*
X67936771Y-58499805D01*
X67363817Y-59071760D01*
X67053354Y-59819438D01*
X67052648Y-60629011D01*
X51829000Y-60629011D01*
X51829000Y-55544638D01*
X54408526Y-55544638D01*
X54824028Y-56550229D01*
X55592724Y-57320268D01*
X56597588Y-57737524D01*
X57685638Y-57738474D01*
X58691229Y-57322972D01*
X59461268Y-56554276D01*
X59878524Y-55549412D01*
X59878528Y-55544638D01*
X106408526Y-55544638D01*
X106824028Y-56550229D01*
X107592724Y-57320268D01*
X108597588Y-57737524D01*
X109685638Y-57738474D01*
X110691229Y-57322972D01*
X111461268Y-56554276D01*
X111878524Y-55549412D01*
X111879474Y-54461362D01*
X111463972Y-53455771D01*
X110695276Y-52685732D01*
X109690412Y-52268476D01*
X108602362Y-52267526D01*
X107596771Y-52683028D01*
X106826732Y-53451724D01*
X106409476Y-54456588D01*
X106408526Y-55544638D01*
X59878528Y-55544638D01*
X59879474Y-54461362D01*
X59463972Y-53455771D01*
X58695276Y-52685732D01*
X57690412Y-52268476D01*
X56602362Y-52267526D01*
X55596771Y-52683028D01*
X54826732Y-53451724D01*
X54409476Y-54456588D01*
X54408526Y-55544638D01*
X51829000Y-55544638D01*
X51829000Y-49688000D01*
X114459000Y-49688000D01*
X114459000Y-106430972D01*
X114459000Y-106430972D01*
G37*
X114459000Y-106430972D02*
X112489281Y-106459111D01*
X112466836Y-105770547D01*
X112246099Y-105237641D01*
X111968868Y-105126737D01*
X110923605Y-106172000D01*
X110937748Y-106186143D01*
X110758143Y-106365748D01*
X110744000Y-106351605D01*
X110729858Y-106365748D01*
X110550253Y-106186143D01*
X110564395Y-106172000D01*
X109519132Y-105126737D01*
X109241901Y-105237641D01*
X108998677Y-105883593D01*
X109019053Y-106508686D01*
X79246186Y-106934013D01*
X79196924Y-106944724D01*
X79155710Y-106973756D01*
X79129038Y-107016536D01*
X79121000Y-107061000D01*
X79121000Y-113030000D01*
X68221580Y-113030000D01*
X68442941Y-112808639D01*
X68751362Y-112936707D01*
X69421697Y-112937292D01*
X70041229Y-112681306D01*
X70515640Y-112207722D01*
X70772707Y-111588638D01*
X70773292Y-110918303D01*
X70517306Y-110298771D01*
X70043722Y-109824360D01*
X69424638Y-109567293D01*
X68754303Y-109566708D01*
X68134771Y-109822694D01*
X67660360Y-110296278D01*
X67403293Y-110915362D01*
X67402918Y-111345503D01*
X66840420Y-111908000D01*
X63395958Y-111908000D01*
X63374779Y-111856743D01*
X62932444Y-111413636D01*
X63373142Y-110973706D01*
X63395443Y-110920000D01*
X65964995Y-110920000D01*
X65965000Y-110920001D01*
X66247484Y-110863810D01*
X66303675Y-110852633D01*
X66590790Y-110660790D01*
X68488163Y-108763417D01*
X68751362Y-108872707D01*
X69421697Y-108873292D01*
X70041229Y-108617306D01*
X70515640Y-108143722D01*
X70772707Y-107524638D01*
X70773292Y-106854303D01*
X70517306Y-106234771D01*
X70043722Y-105760360D01*
X69424638Y-105503293D01*
X68754303Y-105502708D01*
X68134771Y-105758694D01*
X67660360Y-106232278D01*
X67403293Y-106851362D01*
X67402862Y-107345559D01*
X65598420Y-109150000D01*
X63395958Y-109150000D01*
X63374779Y-109098743D01*
X62932444Y-108655636D01*
X63373142Y-108215706D01*
X63395443Y-108162000D01*
X64722995Y-108162000D01*
X64723000Y-108162001D01*
X65005484Y-108105810D01*
X65061675Y-108094633D01*
X65348790Y-107902790D01*
X68533385Y-104718195D01*
X68751362Y-104808707D01*
X69421697Y-104809292D01*
X70041229Y-104553306D01*
X70515640Y-104079722D01*
X70772707Y-103460638D01*
X70773292Y-102790303D01*
X70517306Y-102170771D01*
X70043722Y-101696360D01*
X69424638Y-101439293D01*
X68754303Y-101438708D01*
X68134771Y-101694694D01*
X67660360Y-102168278D01*
X67403293Y-102787362D01*
X67402806Y-103345615D01*
X64356420Y-106392000D01*
X63395958Y-106392000D01*
X63374779Y-106340743D01*
X62909626Y-105874778D01*
X62890349Y-105866773D01*
X62958315Y-105686001D01*
X61970920Y-104698605D01*
X61956778Y-104712748D01*
X61777172Y-104533142D01*
X61791315Y-104519000D01*
X62150525Y-104519000D01*
X63137921Y-105506395D01*
X63406851Y-105405284D01*
X63636714Y-104788313D01*
X63612974Y-104130341D01*
X63406851Y-103632716D01*
X63137921Y-103531605D01*
X62150525Y-104519000D01*
X61791315Y-104519000D01*
X61777172Y-104504858D01*
X61956778Y-104325253D01*
X61970920Y-104339395D01*
X62958315Y-103351999D01*
X62890540Y-103171733D01*
X62907177Y-103164859D01*
X63373142Y-102699706D01*
X63625632Y-102091644D01*
X63626206Y-101433244D01*
X63374779Y-100824743D01*
X62932444Y-100381636D01*
X63065609Y-100248703D01*
X68078902Y-100248703D01*
X68183687Y-100520745D01*
X68811526Y-100755619D01*
X69481456Y-100732349D01*
X69992313Y-100520745D01*
X70097098Y-100248703D01*
X69088000Y-99239605D01*
X68078902Y-100248703D01*
X63065609Y-100248703D01*
X63373142Y-99941706D01*
X63625632Y-99333644D01*
X63626111Y-98783526D01*
X67392381Y-98783526D01*
X67415651Y-99453456D01*
X67627255Y-99964313D01*
X67899297Y-100069098D01*
X68908395Y-99060000D01*
X69267605Y-99060000D01*
X70276703Y-100069098D01*
X70548745Y-99964313D01*
X70783619Y-99336474D01*
X70760349Y-98666544D01*
X70548745Y-98155687D01*
X70276703Y-98050902D01*
X69267605Y-99060000D01*
X68908395Y-99060000D01*
X67899297Y-98050902D01*
X67627255Y-98155687D01*
X67392381Y-98783526D01*
X63626111Y-98783526D01*
X63626206Y-98675244D01*
X63374779Y-98066743D01*
X62932444Y-97623636D01*
X63373142Y-97183706D01*
X63625632Y-96575644D01*
X63626206Y-95917244D01*
X63516196Y-95651000D01*
X63750487Y-95651000D01*
X63799326Y-95683633D01*
X64138000Y-95751001D01*
X64476674Y-95683633D01*
X64763790Y-95491790D01*
X64882580Y-95373000D01*
X79822502Y-95373000D01*
X79850694Y-95441229D01*
X80324278Y-95915640D01*
X80943362Y-96172707D01*
X81613697Y-96173292D01*
X82233229Y-95917306D01*
X82707640Y-95443722D01*
X82737006Y-95373000D01*
X92657178Y-95373000D01*
X92777201Y-95422838D01*
X93149167Y-95423162D01*
X93492943Y-95281117D01*
X93756192Y-95018327D01*
X93898838Y-94674799D01*
X93899162Y-94302833D01*
X93757117Y-93959057D01*
X93494327Y-93695808D01*
X93251556Y-93595000D01*
X101995420Y-93595000D01*
X103006208Y-94605787D01*
X103006210Y-94605790D01*
X106562208Y-98161787D01*
X106562210Y-98161790D01*
X107070208Y-98669787D01*
X107070210Y-98669790D01*
X107357325Y-98861633D01*
X107696000Y-98929000D01*
X110885420Y-98929000D01*
X111472140Y-99515719D01*
X111090627Y-99357301D01*
X110400401Y-99356699D01*
X109762485Y-99620281D01*
X109273996Y-100107918D01*
X109232853Y-100207000D01*
X80630579Y-100207000D01*
X76571790Y-96148210D01*
X76284675Y-95956367D01*
X76228484Y-95945190D01*
X75946000Y-95888999D01*
X75945995Y-95889000D01*
X65715238Y-95889000D01*
X65554327Y-95727808D01*
X65210799Y-95585162D01*
X64838833Y-95584838D01*
X64495057Y-95726883D01*
X64231808Y-95989673D01*
X64089162Y-96333201D01*
X64088838Y-96705167D01*
X64230883Y-97048943D01*
X64493673Y-97312192D01*
X64614987Y-97362566D01*
X64652208Y-97399787D01*
X64652210Y-97399790D01*
X64856064Y-97536000D01*
X64939325Y-97591633D01*
X65278000Y-97659001D01*
X65278005Y-97659000D01*
X68160674Y-97659000D01*
X68078902Y-97871297D01*
X69088000Y-98880395D01*
X70097098Y-97871297D01*
X70015326Y-97659000D01*
X75579420Y-97659000D01*
X79638208Y-101717787D01*
X79638210Y-101717790D01*
X79905968Y-101896699D01*
X79925325Y-101909633D01*
X80264000Y-101977001D01*
X80264005Y-101977000D01*
X109232402Y-101977000D01*
X109272281Y-102073515D01*
X109560338Y-102362075D01*
X109273996Y-102647918D01*
X109009301Y-103285373D01*
X109008699Y-103975599D01*
X109272281Y-104613515D01*
X109759918Y-105102004D01*
X109920139Y-105168534D01*
X110744000Y-105992395D01*
X111567305Y-105169090D01*
X111725515Y-105103719D01*
X112214004Y-104616082D01*
X112255147Y-104517000D01*
X112775995Y-104517000D01*
X112776000Y-104517001D01*
X113058484Y-104460810D01*
X113114675Y-104449633D01*
X113401790Y-104257790D01*
X113909787Y-103749792D01*
X113909790Y-103749790D01*
X114101633Y-103462675D01*
X114169000Y-103124000D01*
X114169000Y-100076005D01*
X114169001Y-100076000D01*
X114101633Y-99737326D01*
X114101633Y-99737325D01*
X113909790Y-99450210D01*
X113909787Y-99450208D01*
X111877790Y-97418210D01*
X111832055Y-97387651D01*
X111590675Y-97226367D01*
X111534484Y-97215190D01*
X111252000Y-97158999D01*
X111251995Y-97159000D01*
X108062580Y-97159000D01*
X107813790Y-96910210D01*
X107813787Y-96910208D01*
X106523304Y-95619724D01*
X108973882Y-95619724D01*
X109121455Y-95928106D01*
X109876031Y-96221405D01*
X110685409Y-96203614D01*
X111350545Y-95928106D01*
X111498118Y-95619724D01*
X110236000Y-94357605D01*
X108973882Y-95619724D01*
X106523304Y-95619724D01*
X104721611Y-93818031D01*
X108192595Y-93818031D01*
X108210386Y-94627409D01*
X108485894Y-95292545D01*
X108794276Y-95440118D01*
X110056395Y-94178000D01*
X110415605Y-94178000D01*
X111677724Y-95440118D01*
X111986106Y-95292545D01*
X112279405Y-94537969D01*
X112261614Y-93728591D01*
X111986106Y-93063455D01*
X111677724Y-92915882D01*
X110415605Y-94178000D01*
X110056395Y-94178000D01*
X108794276Y-92915882D01*
X108485894Y-93063455D01*
X108192595Y-93818031D01*
X104721611Y-93818031D01*
X104257790Y-93354210D01*
X104257787Y-93354208D01*
X102987790Y-92084210D01*
X102986190Y-92083141D01*
X102700675Y-91892367D01*
X102644484Y-91881190D01*
X102362000Y-91824999D01*
X102361995Y-91825000D01*
X82733685Y-91825000D01*
X82964707Y-91268638D01*
X82965292Y-90598303D01*
X82709306Y-89978771D01*
X82235722Y-89504360D01*
X81616638Y-89247293D01*
X80946303Y-89246708D01*
X80326771Y-89502694D01*
X79852360Y-89976278D01*
X79822994Y-90047000D01*
X79674887Y-90047000D01*
X79675162Y-89730833D01*
X79533117Y-89387057D01*
X79450000Y-89303795D01*
X79450000Y-88045819D01*
X79519705Y-88031954D01*
X79750046Y-87878046D01*
X80079388Y-87548703D01*
X84334902Y-87548703D01*
X84439687Y-87820745D01*
X85067526Y-88055619D01*
X85737456Y-88032349D01*
X86248313Y-87820745D01*
X86353098Y-87548703D01*
X97034902Y-87548703D01*
X97139687Y-87820745D01*
X97767526Y-88055619D01*
X98437456Y-88032349D01*
X98948313Y-87820745D01*
X99053098Y-87548703D01*
X98044000Y-86539605D01*
X97034902Y-87548703D01*
X86353098Y-87548703D01*
X85344000Y-86539605D01*
X84334902Y-87548703D01*
X80079388Y-87548703D01*
X80258045Y-87370046D01*
X80411954Y-87139705D01*
X80466000Y-86868000D01*
X80411954Y-86596295D01*
X80258045Y-86365955D01*
X80027705Y-86212046D01*
X79756000Y-86158000D01*
X79484295Y-86212046D01*
X79253954Y-86365955D01*
X78953908Y-86666000D01*
X78740000Y-86666000D01*
X78468295Y-86720046D01*
X78237954Y-86873954D01*
X78084046Y-87104295D01*
X78030000Y-87376000D01*
X78030000Y-89303624D01*
X77947808Y-89385673D01*
X77805162Y-89729201D01*
X77804885Y-90047000D01*
X63479836Y-90047000D01*
X63374779Y-89792743D01*
X62932444Y-89349636D01*
X63276680Y-89006000D01*
X75604995Y-89006000D01*
X75605000Y-89006001D01*
X76001077Y-88927215D01*
X76336856Y-88702856D01*
X78956186Y-86083526D01*
X83648381Y-86083526D01*
X83671651Y-86753456D01*
X83883255Y-87264313D01*
X84155297Y-87369098D01*
X85164395Y-86360000D01*
X85523605Y-86360000D01*
X86532703Y-87369098D01*
X86804745Y-87264313D01*
X87039619Y-86636474D01*
X87020413Y-86083526D01*
X96348381Y-86083526D01*
X96371651Y-86753456D01*
X96583255Y-87264313D01*
X96855297Y-87369098D01*
X97864395Y-86360000D01*
X98223605Y-86360000D01*
X99232703Y-87369098D01*
X99504745Y-87264313D01*
X99739619Y-86636474D01*
X99716349Y-85966544D01*
X99504745Y-85455687D01*
X99232703Y-85350902D01*
X98223605Y-86360000D01*
X97864395Y-86360000D01*
X96855297Y-85350902D01*
X96583255Y-85455687D01*
X96348381Y-86083526D01*
X87020413Y-86083526D01*
X87016349Y-85966544D01*
X86804745Y-85455687D01*
X86532703Y-85350902D01*
X85523605Y-86360000D01*
X85164395Y-86360000D01*
X84155297Y-85350902D01*
X83883255Y-85455687D01*
X83648381Y-86083526D01*
X78956186Y-86083526D01*
X79868415Y-85171297D01*
X84334902Y-85171297D01*
X85344000Y-86180395D01*
X86353098Y-85171297D01*
X97034902Y-85171297D01*
X98044000Y-86180395D01*
X99053098Y-85171297D01*
X98948313Y-84899255D01*
X98320474Y-84664381D01*
X97650544Y-84687651D01*
X97139687Y-84899255D01*
X97034902Y-85171297D01*
X86353098Y-85171297D01*
X86248313Y-84899255D01*
X85620474Y-84664381D01*
X84950544Y-84687651D01*
X84439687Y-84899255D01*
X84334902Y-85171297D01*
X79868415Y-85171297D01*
X80692712Y-84347000D01*
X102187288Y-84347000D01*
X108201276Y-90360987D01*
X108200648Y-91081011D01*
X108509805Y-91829229D01*
X109081760Y-92402183D01*
X109132581Y-92423286D01*
X109121455Y-92427894D01*
X108973882Y-92736276D01*
X110236000Y-93998395D01*
X111498118Y-92736276D01*
X111350545Y-92427894D01*
X111339893Y-92423754D01*
X111387229Y-92404195D01*
X111960183Y-91832240D01*
X112270646Y-91084562D01*
X112271352Y-90274989D01*
X111962195Y-89526771D01*
X111390240Y-88953817D01*
X111328839Y-88928321D01*
X111387229Y-88904195D01*
X111960183Y-88332240D01*
X112270646Y-87584562D01*
X112271352Y-86774989D01*
X111962195Y-86026771D01*
X111390240Y-85453817D01*
X110642562Y-85143354D01*
X109832989Y-85142648D01*
X109084771Y-85451805D01*
X108511817Y-86023760D01*
X108201354Y-86771438D01*
X108200777Y-87433066D01*
X103347856Y-82580144D01*
X103012077Y-82355785D01*
X102616000Y-82276999D01*
X102615995Y-82277000D01*
X80264005Y-82277000D01*
X80264000Y-82276999D01*
X79867923Y-82355785D01*
X79532144Y-82580144D01*
X75176288Y-86936000D01*
X63276208Y-86936000D01*
X62932444Y-86591636D01*
X63373142Y-86151706D01*
X63395443Y-86098000D01*
X69472995Y-86098000D01*
X69473000Y-86098001D01*
X69755484Y-86041810D01*
X69811675Y-86030633D01*
X70098790Y-85838790D01*
X71709086Y-84228494D01*
X71708838Y-84513167D01*
X71850883Y-84856943D01*
X72113673Y-85120192D01*
X72457201Y-85262838D01*
X72829167Y-85263162D01*
X73172943Y-85121117D01*
X73436192Y-84858327D01*
X73486566Y-84737014D01*
X74534579Y-83689000D01*
X76401178Y-83689000D01*
X76521201Y-83738838D01*
X76893167Y-83739162D01*
X77236943Y-83597117D01*
X77500192Y-83334327D01*
X77642838Y-82990799D01*
X77643162Y-82618833D01*
X77501117Y-82275057D01*
X77238327Y-82011808D01*
X76894799Y-81869162D01*
X76522833Y-81868838D01*
X76401431Y-81919000D01*
X74168000Y-81919000D01*
X73981477Y-81956102D01*
X74788579Y-81149000D01*
X94487995Y-81149000D01*
X94488000Y-81149001D01*
X94770484Y-81092810D01*
X94826675Y-81081633D01*
X95113790Y-80889790D01*
X95912835Y-80090745D01*
X96032943Y-80041117D01*
X96296192Y-79778327D01*
X96438838Y-79434799D01*
X96439162Y-79062833D01*
X96297117Y-78719057D01*
X96034327Y-78455808D01*
X95690799Y-78313162D01*
X95531556Y-78313023D01*
X95912834Y-77931745D01*
X96032943Y-77882117D01*
X96296192Y-77619327D01*
X96438838Y-77275799D01*
X96439162Y-76903833D01*
X96326435Y-76631011D01*
X108200648Y-76631011D01*
X108509805Y-77379229D01*
X109081760Y-77952183D01*
X109143161Y-77977679D01*
X109084771Y-78001805D01*
X108511817Y-78573760D01*
X108201354Y-79321438D01*
X108200648Y-80131011D01*
X108509805Y-80879229D01*
X109081760Y-81452183D01*
X109829438Y-81762646D01*
X110639011Y-81763352D01*
X111387229Y-81454195D01*
X111960183Y-80882240D01*
X112270646Y-80134562D01*
X112271352Y-79324989D01*
X111962195Y-78576771D01*
X111390240Y-78003817D01*
X111328839Y-77978321D01*
X111387229Y-77954195D01*
X111960183Y-77382240D01*
X112270646Y-76634562D01*
X112271352Y-75824989D01*
X111962195Y-75076771D01*
X111390240Y-74503817D01*
X110642562Y-74193354D01*
X109832989Y-74192648D01*
X109084771Y-74501805D01*
X108511817Y-75073760D01*
X108201354Y-75821438D01*
X108200648Y-76631011D01*
X96326435Y-76631011D01*
X96297117Y-76560057D01*
X96034327Y-76296808D01*
X95690799Y-76154162D01*
X95318833Y-76153838D01*
X94975057Y-76295883D01*
X94711808Y-76558673D01*
X94661434Y-76679987D01*
X93232420Y-78109000D01*
X65024005Y-78109000D01*
X65024000Y-78108999D01*
X64741516Y-78165190D01*
X64685325Y-78176367D01*
X64398210Y-78368210D01*
X64398208Y-78368213D01*
X63641420Y-79125000D01*
X58420000Y-79125000D01*
X58081325Y-79192367D01*
X57794210Y-79384210D01*
X57794208Y-79384213D01*
X56270210Y-80908210D01*
X56078367Y-81195325D01*
X56078367Y-81195326D01*
X56010999Y-81534000D01*
X56011000Y-81534005D01*
X56011000Y-85597995D01*
X56010999Y-85598000D01*
X56058896Y-85838790D01*
X56078367Y-85936675D01*
X56186161Y-86098001D01*
X56270210Y-86223790D01*
X57264208Y-87217787D01*
X57264210Y-87217790D01*
X57551325Y-87409633D01*
X57890000Y-87477001D01*
X57890005Y-87477000D01*
X58005882Y-87477000D01*
X58027061Y-87528257D01*
X58469396Y-87971364D01*
X58028698Y-88411294D01*
X57776208Y-89019356D01*
X57775634Y-89677756D01*
X58027061Y-90286257D01*
X58469396Y-90729364D01*
X58028698Y-91169294D01*
X57776208Y-91777356D01*
X57775634Y-92435756D01*
X58027061Y-93044257D01*
X58469396Y-93487364D01*
X58028698Y-93927294D01*
X57776208Y-94535356D01*
X57775634Y-95193756D01*
X58027061Y-95802257D01*
X58469396Y-96245364D01*
X58028698Y-96685294D01*
X57776208Y-97293356D01*
X57775634Y-97951756D01*
X58027061Y-98560257D01*
X58469396Y-99003364D01*
X58028698Y-99443294D01*
X57776208Y-100051356D01*
X57775634Y-100709756D01*
X58027061Y-101318257D01*
X58469396Y-101761364D01*
X58028698Y-102201294D01*
X57776208Y-102809356D01*
X57776155Y-102870000D01*
X51829000Y-102870000D01*
X51829000Y-76006932D01*
X57985472Y-76006932D01*
X58378186Y-76957372D01*
X59104723Y-77685178D01*
X60054476Y-78079550D01*
X61082852Y-78080448D01*
X62033292Y-77687734D01*
X62761098Y-76961197D01*
X63155470Y-76011444D01*
X63156368Y-74983068D01*
X62763654Y-74032628D01*
X62217677Y-73485697D01*
X90262708Y-73485697D01*
X90518694Y-74105229D01*
X90992278Y-74579640D01*
X91611362Y-74836707D01*
X92281697Y-74837292D01*
X92901229Y-74581306D01*
X93375640Y-74107722D01*
X93632707Y-73488638D01*
X93633292Y-72818303D01*
X93377306Y-72198771D01*
X92903722Y-71724360D01*
X92284638Y-71467293D01*
X91614303Y-71466708D01*
X90994771Y-71722694D01*
X90520360Y-72196278D01*
X90263293Y-72815362D01*
X90262708Y-73485697D01*
X62217677Y-73485697D01*
X62037117Y-73304822D01*
X61087364Y-72910450D01*
X60058988Y-72909552D01*
X59108548Y-73302266D01*
X58380742Y-74028803D01*
X57986370Y-74978556D01*
X57985472Y-76006932D01*
X51829000Y-76006932D01*
X51829000Y-70501724D01*
X108973882Y-70501724D01*
X109121455Y-70810106D01*
X109876031Y-71103405D01*
X110685409Y-71085614D01*
X111350545Y-70810106D01*
X111498118Y-70501724D01*
X110236000Y-69239605D01*
X108973882Y-70501724D01*
X51829000Y-70501724D01*
X51829000Y-65167724D01*
X67825882Y-65167724D01*
X67973455Y-65476106D01*
X68728031Y-65769405D01*
X69537409Y-65751614D01*
X70202545Y-65476106D01*
X70350118Y-65167724D01*
X83065882Y-65167724D01*
X83213455Y-65476106D01*
X83968031Y-65769405D01*
X84777409Y-65751614D01*
X85442545Y-65476106D01*
X85570285Y-65209167D01*
X91012838Y-65209167D01*
X91063000Y-65330569D01*
X91063000Y-68273178D01*
X91013162Y-68393201D01*
X91012838Y-68765167D01*
X91154883Y-69108943D01*
X91417673Y-69372192D01*
X91761201Y-69514838D01*
X92133167Y-69515162D01*
X92476943Y-69373117D01*
X92740192Y-69110327D01*
X92882838Y-68766799D01*
X92882896Y-68700031D01*
X108192595Y-68700031D01*
X108210386Y-69509409D01*
X108485894Y-70174545D01*
X108794276Y-70322118D01*
X110056395Y-69060000D01*
X110415605Y-69060000D01*
X111677724Y-70322118D01*
X111986106Y-70174545D01*
X112279405Y-69419969D01*
X112261614Y-68610591D01*
X111986106Y-67945455D01*
X111677724Y-67797882D01*
X110415605Y-69060000D01*
X110056395Y-69060000D01*
X108794276Y-67797882D01*
X108485894Y-67945455D01*
X108192595Y-68700031D01*
X92882896Y-68700031D01*
X92883162Y-68394833D01*
X92833000Y-68273431D01*
X92833000Y-65330822D01*
X92882838Y-65210799D01*
X92883162Y-64838833D01*
X92741117Y-64495057D01*
X92478327Y-64231808D01*
X92134799Y-64089162D01*
X91762833Y-64088838D01*
X91419057Y-64230883D01*
X91155808Y-64493673D01*
X91013162Y-64837201D01*
X91012838Y-65209167D01*
X85570285Y-65209167D01*
X85590118Y-65167724D01*
X84328000Y-63905605D01*
X83065882Y-65167724D01*
X70350118Y-65167724D01*
X69088000Y-63905605D01*
X67825882Y-65167724D01*
X51829000Y-65167724D01*
X51829000Y-63366031D01*
X67044595Y-63366031D01*
X67062386Y-64175409D01*
X67337894Y-64840545D01*
X67646276Y-64988118D01*
X68908395Y-63726000D01*
X69267605Y-63726000D01*
X70529724Y-64988118D01*
X70838106Y-64840545D01*
X71131405Y-64085969D01*
X71115580Y-63366031D01*
X82284595Y-63366031D01*
X82302386Y-64175409D01*
X82577894Y-64840545D01*
X82886276Y-64988118D01*
X84148395Y-63726000D01*
X84507605Y-63726000D01*
X85769724Y-64988118D01*
X86078106Y-64840545D01*
X86371405Y-64085969D01*
X86353614Y-63276591D01*
X86078106Y-62611455D01*
X85769724Y-62463882D01*
X84507605Y-63726000D01*
X84148395Y-63726000D01*
X82886276Y-62463882D01*
X82577894Y-62611455D01*
X82284595Y-63366031D01*
X71115580Y-63366031D01*
X71113614Y-63276591D01*
X70838106Y-62611455D01*
X70529724Y-62463882D01*
X69267605Y-63726000D01*
X68908395Y-63726000D01*
X67646276Y-62463882D01*
X67337894Y-62611455D01*
X67044595Y-63366031D01*
X51829000Y-63366031D01*
X51829000Y-60629011D01*
X67052648Y-60629011D01*
X67361805Y-61377229D01*
X67933760Y-61950183D01*
X67984581Y-61971286D01*
X67973455Y-61975894D01*
X67825882Y-62284276D01*
X69088000Y-63546395D01*
X70350118Y-62284276D01*
X70202545Y-61975894D01*
X70191893Y-61971754D01*
X70239229Y-61952195D01*
X70812183Y-61380240D01*
X70820172Y-61361000D01*
X82595099Y-61361000D01*
X82601805Y-61377229D01*
X83173760Y-61950183D01*
X83224581Y-61971286D01*
X83213455Y-61975894D01*
X83065882Y-62284276D01*
X84328000Y-63546395D01*
X85590118Y-62284276D01*
X85442545Y-61975894D01*
X85431893Y-61971754D01*
X85479229Y-61952195D01*
X86052183Y-61380240D01*
X86060172Y-61361000D01*
X92174000Y-61361000D01*
X92608346Y-61274603D01*
X92976566Y-61028566D01*
X95847132Y-58158000D01*
X97701423Y-58158000D01*
X97251360Y-58607278D01*
X96994293Y-59226362D01*
X96993708Y-59896697D01*
X97249694Y-60516229D01*
X97723278Y-60990640D01*
X98342362Y-61247707D01*
X99012697Y-61248292D01*
X99632229Y-60992306D01*
X100106640Y-60518722D01*
X100266576Y-60133555D01*
X100424694Y-60516229D01*
X100898278Y-60990640D01*
X101517362Y-61247707D01*
X102187697Y-61248292D01*
X102807229Y-60992306D01*
X103281640Y-60518722D01*
X103538707Y-59899638D01*
X103539292Y-59229303D01*
X103283306Y-58609771D01*
X102832323Y-58158000D01*
X104304868Y-58158000D01*
X109101000Y-62954132D01*
X109101000Y-63827099D01*
X109084771Y-63833805D01*
X108511817Y-64405760D01*
X108201354Y-65153438D01*
X108200648Y-65963011D01*
X108509805Y-66711229D01*
X109081760Y-67284183D01*
X109132581Y-67305286D01*
X109121455Y-67309894D01*
X108973882Y-67618276D01*
X110236000Y-68880395D01*
X111498118Y-67618276D01*
X111350545Y-67309894D01*
X111339893Y-67305754D01*
X111387229Y-67286195D01*
X111960183Y-66714240D01*
X112270646Y-65966562D01*
X112271352Y-65156989D01*
X111962195Y-64408771D01*
X111390240Y-63835817D01*
X111371000Y-63827828D01*
X111371000Y-62484000D01*
X111284603Y-62049654D01*
X111038566Y-61681434D01*
X105577566Y-56220434D01*
X105209346Y-55974397D01*
X104775000Y-55888000D01*
X95377000Y-55888000D01*
X94942654Y-55974397D01*
X94574434Y-56220434D01*
X91703868Y-59091000D01*
X86060901Y-59091000D01*
X86054195Y-59074771D01*
X85482240Y-58501817D01*
X84734562Y-58191354D01*
X83924989Y-58190648D01*
X83176771Y-58499805D01*
X82603817Y-59071760D01*
X82595828Y-59091000D01*
X70820901Y-59091000D01*
X70814195Y-59074771D01*
X70242240Y-58501817D01*
X69494562Y-58191354D01*
X68684989Y-58190648D01*
X67936771Y-58499805D01*
X67363817Y-59071760D01*
X67053354Y-59819438D01*
X67052648Y-60629011D01*
X51829000Y-60629011D01*
X51829000Y-55544638D01*
X54408526Y-55544638D01*
X54824028Y-56550229D01*
X55592724Y-57320268D01*
X56597588Y-57737524D01*
X57685638Y-57738474D01*
X58691229Y-57322972D01*
X59461268Y-56554276D01*
X59878524Y-55549412D01*
X59878528Y-55544638D01*
X106408526Y-55544638D01*
X106824028Y-56550229D01*
X107592724Y-57320268D01*
X108597588Y-57737524D01*
X109685638Y-57738474D01*
X110691229Y-57322972D01*
X111461268Y-56554276D01*
X111878524Y-55549412D01*
X111879474Y-54461362D01*
X111463972Y-53455771D01*
X110695276Y-52685732D01*
X109690412Y-52268476D01*
X108602362Y-52267526D01*
X107596771Y-52683028D01*
X106826732Y-53451724D01*
X106409476Y-54456588D01*
X106408526Y-55544638D01*
X59878528Y-55544638D01*
X59879474Y-54461362D01*
X59463972Y-53455771D01*
X58695276Y-52685732D01*
X57690412Y-52268476D01*
X56602362Y-52267526D01*
X55596771Y-52683028D01*
X54826732Y-53451724D01*
X54409476Y-54456588D01*
X54408526Y-55544638D01*
X51829000Y-55544638D01*
X51829000Y-49688000D01*
X114459000Y-49688000D01*
X114459000Y-106430972D01*
G36*
X69106420Y-84328000D02*
X63395958Y-84328000D01*
X63374779Y-84276743D01*
X63175998Y-84077615D01*
X63226237Y-84068162D01*
X63442361Y-83929090D01*
X63587351Y-83716890D01*
X63638360Y-83465000D01*
X63638360Y-81445000D01*
X63594082Y-81209683D01*
X63455010Y-80993559D01*
X63310764Y-80895000D01*
X64007995Y-80895000D01*
X64008000Y-80895001D01*
X64290484Y-80838810D01*
X64346675Y-80827633D01*
X64633790Y-80635790D01*
X65390579Y-79879000D01*
X73555421Y-79879000D01*
X69106420Y-84328000D01*
X69106420Y-84328000D01*
G37*
X69106420Y-84328000D02*
X63395958Y-84328000D01*
X63374779Y-84276743D01*
X63175998Y-84077615D01*
X63226237Y-84068162D01*
X63442361Y-83929090D01*
X63587351Y-83716890D01*
X63638360Y-83465000D01*
X63638360Y-81445000D01*
X63594082Y-81209683D01*
X63455010Y-80993559D01*
X63310764Y-80895000D01*
X64007995Y-80895000D01*
X64008000Y-80895001D01*
X64290484Y-80838810D01*
X64346675Y-80827633D01*
X64633790Y-80635790D01*
X65390579Y-79879000D01*
X73555421Y-79879000D01*
X69106420Y-84328000D01*
M02*
