G04 #@! TF.FileFunction,Soldermask,Bot*
%FSLAX46Y46*%
G04 Gerber Fmt 4.6, Leading zero omitted, Abs format (unit mm)*
G04 Created by KiCad (PCBNEW 4.0.6) date 11/29/17 10:44:29*
%MOMM*%
%LPD*%
G01*
G04 APERTURE LIST*
%ADD10C,0.100000*%
%ADD11C,4.200000*%
%ADD12C,2.100000*%
%ADD13R,4.400000X4.400000*%
%ADD14R,3.800000X3.800000*%
%ADD15C,2.800000*%
%ADD16C,2.200000*%
%ADD17C,3.900000*%
%ADD18C,2.040000*%
%ADD19R,2.040000X2.020000*%
G04 APERTURE END LIST*
D10*
D11*
X109144000Y-55003000D03*
D12*
X69088000Y-107188000D03*
X69088000Y-111252000D03*
X69088000Y-103124000D03*
X80264000Y-135128000D03*
X75184000Y-135128000D03*
X69088000Y-99060000D03*
X98679000Y-59563000D03*
X101854000Y-59563000D03*
X91948000Y-73152000D03*
X98044000Y-86360000D03*
X85344000Y-86360000D03*
X81280000Y-94488000D03*
X81280000Y-90932000D03*
X84836000Y-128524000D03*
X84836000Y-119888000D03*
X73152000Y-127000000D03*
X73152000Y-120396000D03*
D13*
X90047000Y-136700000D03*
X90047000Y-142700000D03*
D14*
X94742000Y-139700000D03*
D11*
X57144000Y-143003000D03*
X57144000Y-55003000D03*
X109144000Y-143003000D03*
D15*
X110236000Y-65560000D03*
X110236000Y-69060000D03*
X110236000Y-76228000D03*
X110236000Y-79728000D03*
X110236000Y-87178000D03*
X110236000Y-90678000D03*
X110236000Y-94178000D03*
D16*
X110744000Y-108712000D03*
X110744000Y-106172000D03*
X110744000Y-111252000D03*
X110744000Y-103632000D03*
X110744000Y-113792000D03*
X110744000Y-101092000D03*
D15*
X111252000Y-127480000D03*
X111252000Y-123980000D03*
X111252000Y-130980000D03*
X111252000Y-120480000D03*
X69088000Y-60226000D03*
X69088000Y-63726000D03*
X84328000Y-60226000D03*
X84328000Y-63726000D03*
D17*
X60570920Y-75495000D03*
X60570920Y-122511000D03*
D18*
X61970920Y-115551000D03*
X61970920Y-112793000D03*
X61970920Y-110035000D03*
X61970920Y-107277000D03*
X61970920Y-104519000D03*
X61970920Y-101761000D03*
X61970920Y-99003000D03*
X61970920Y-96245000D03*
X61970920Y-93487000D03*
X61970920Y-90729000D03*
X61970920Y-87971000D03*
X61970920Y-85213000D03*
D19*
X61970920Y-82455000D03*
D18*
X59430920Y-114172000D03*
X59430920Y-111414000D03*
X59430920Y-108656000D03*
X59430920Y-105898000D03*
X59430920Y-103140000D03*
X59430920Y-100382000D03*
X59430920Y-97624000D03*
X59430920Y-94866000D03*
X59430920Y-92108000D03*
X59430920Y-89350000D03*
X59430920Y-86592000D03*
X59430920Y-83834000D03*
M02*
