G04 #@! TF.FileFunction,Soldermask,Top*
%FSLAX46Y46*%
G04 Gerber Fmt 4.6, Leading zero omitted, Abs format (unit mm)*
G04 Created by KiCad (PCBNEW 4.0.6) date 11/29/17 10:44:29*
%MOMM*%
%LPD*%
G01*
G04 APERTURE LIST*
%ADD10C,0.100000*%
%ADD11C,4.200000*%
%ADD12C,2.100000*%
%ADD13R,1.200000X1.400000*%
%ADD14R,1.400000X1.200000*%
%ADD15R,0.620000X1.720000*%
%ADD16R,0.650000X1.720000*%
%ADD17R,1.400000X3.000000*%
%ADD18R,1.400000X0.900000*%
%ADD19R,1.100000X1.400000*%
%ADD20R,3.800000X2.700000*%
%ADD21R,1.710000X1.414000*%
%ADD22R,4.400000X4.400000*%
%ADD23R,3.800000X3.800000*%
%ADD24C,2.800000*%
%ADD25C,2.200000*%
%ADD26R,0.910000X1.600000*%
%ADD27C,3.900000*%
%ADD28C,2.040000*%
%ADD29R,2.040000X2.020000*%
G04 APERTURE END LIST*
D10*
D11*
X109144000Y-55003000D03*
D12*
X69088000Y-107188000D03*
X69088000Y-111252000D03*
X69088000Y-103124000D03*
X80264000Y-135128000D03*
X75184000Y-135128000D03*
X69088000Y-99060000D03*
D13*
X84752000Y-71120000D03*
X86952000Y-71120000D03*
D14*
X90424000Y-77640000D03*
X90424000Y-79840000D03*
D12*
X98679000Y-59563000D03*
X101854000Y-59563000D03*
X91948000Y-73152000D03*
X98044000Y-86360000D03*
X85344000Y-86360000D03*
X81280000Y-94488000D03*
X81280000Y-90932000D03*
X84836000Y-128524000D03*
X84836000Y-119888000D03*
X73152000Y-127000000D03*
X73152000Y-120396000D03*
D15*
X86868000Y-74640000D03*
X85918000Y-74640000D03*
X87818000Y-74640000D03*
D16*
X87818000Y-77760000D03*
X85918000Y-77760000D03*
D14*
X104140000Y-68242000D03*
X104140000Y-70442000D03*
X92964000Y-82212000D03*
X92964000Y-84412000D03*
D13*
X83396000Y-80772000D03*
X81196000Y-80772000D03*
X95801000Y-91313000D03*
X98001000Y-91313000D03*
X85514000Y-90932000D03*
X87714000Y-90932000D03*
X96096000Y-98044000D03*
X93896000Y-98044000D03*
X101176000Y-98044000D03*
X98976000Y-98044000D03*
X88816000Y-98044000D03*
X91016000Y-98044000D03*
X83482000Y-98044000D03*
X85682000Y-98044000D03*
D14*
X87376000Y-113200000D03*
X87376000Y-115400000D03*
X84836000Y-113200000D03*
X84836000Y-115400000D03*
D13*
X102700000Y-129286000D03*
X100500000Y-129286000D03*
X102573000Y-122174000D03*
X100373000Y-122174000D03*
D14*
X80772000Y-129878000D03*
X80772000Y-127678000D03*
X80772000Y-123614000D03*
X80772000Y-125814000D03*
D13*
X76116000Y-129794000D03*
X78316000Y-129794000D03*
X76116000Y-123698000D03*
X78316000Y-123698000D03*
X104986000Y-90678000D03*
X102786000Y-90678000D03*
X104224000Y-79756000D03*
X102024000Y-79756000D03*
X104224000Y-76200000D03*
X102024000Y-76200000D03*
D14*
X105156000Y-108796000D03*
X105156000Y-106596000D03*
X72136000Y-139870000D03*
X72136000Y-142070000D03*
D17*
X91420000Y-121158000D03*
D18*
X88920000Y-122108000D03*
X88920000Y-120208000D03*
D17*
X91420000Y-127762000D03*
D18*
X88920000Y-128712000D03*
X88920000Y-126812000D03*
D13*
X95928000Y-129286000D03*
X98128000Y-129286000D03*
X95928000Y-122174000D03*
X98128000Y-122174000D03*
D19*
X104902000Y-126101000D03*
X104902000Y-122311000D03*
X105029000Y-133086000D03*
X105029000Y-129296000D03*
D13*
X70020000Y-145034000D03*
X72220000Y-145034000D03*
X96436000Y-71374000D03*
X98636000Y-71374000D03*
X95588000Y-62230000D03*
X93388000Y-62230000D03*
D14*
X92964000Y-77640000D03*
X92964000Y-79840000D03*
D13*
X104986000Y-87122000D03*
X102786000Y-87122000D03*
D14*
X98287840Y-77071040D03*
X98287840Y-79271040D03*
X72644000Y-107018000D03*
X72644000Y-104818000D03*
X72644000Y-112606000D03*
X72644000Y-110406000D03*
X72644000Y-101938000D03*
X72644000Y-99738000D03*
X69088000Y-139870000D03*
X69088000Y-142070000D03*
D20*
X76708000Y-145352000D03*
X76708000Y-140652000D03*
D14*
X83312000Y-76116000D03*
X83312000Y-78316000D03*
X101600000Y-68242000D03*
X101600000Y-70442000D03*
D15*
X96520000Y-68362000D03*
X97470000Y-68362000D03*
X95570000Y-68362000D03*
D16*
X95570000Y-65242000D03*
X97470000Y-65242000D03*
D21*
X104140000Y-62234000D03*
X104140000Y-65782000D03*
D22*
X90047000Y-136700000D03*
X90047000Y-142700000D03*
D23*
X94742000Y-139700000D03*
D11*
X57144000Y-143003000D03*
X57144000Y-55003000D03*
X109144000Y-143003000D03*
D24*
X110236000Y-65560000D03*
X110236000Y-69060000D03*
X110236000Y-76228000D03*
X110236000Y-79728000D03*
X110236000Y-87178000D03*
X110236000Y-90678000D03*
X110236000Y-94178000D03*
D25*
X110744000Y-108712000D03*
X110744000Y-106172000D03*
X110744000Y-111252000D03*
X110744000Y-103632000D03*
X110744000Y-113792000D03*
X110744000Y-101092000D03*
D24*
X111252000Y-127480000D03*
X111252000Y-123980000D03*
X111252000Y-130980000D03*
X111252000Y-120480000D03*
X69088000Y-60226000D03*
X69088000Y-63726000D03*
X84328000Y-60226000D03*
X84328000Y-63726000D03*
D26*
X84963000Y-110656000D03*
X86233000Y-110656000D03*
X87503000Y-110656000D03*
X87503000Y-104736000D03*
X84963000Y-104736000D03*
X86233000Y-104736000D03*
X83693000Y-104736000D03*
X83693000Y-110656000D03*
D27*
X60570920Y-75495000D03*
X60570920Y-122511000D03*
D28*
X61970920Y-115551000D03*
X61970920Y-112793000D03*
X61970920Y-110035000D03*
X61970920Y-107277000D03*
X61970920Y-104519000D03*
X61970920Y-101761000D03*
X61970920Y-99003000D03*
X61970920Y-96245000D03*
X61970920Y-93487000D03*
X61970920Y-90729000D03*
X61970920Y-87971000D03*
X61970920Y-85213000D03*
D29*
X61970920Y-82455000D03*
D28*
X59430920Y-114172000D03*
X59430920Y-111414000D03*
X59430920Y-108656000D03*
X59430920Y-105898000D03*
X59430920Y-103140000D03*
X59430920Y-100382000D03*
X59430920Y-97624000D03*
X59430920Y-94866000D03*
X59430920Y-92108000D03*
X59430920Y-89350000D03*
X59430920Y-86592000D03*
X59430920Y-83834000D03*
M02*
